STARTFONT 2.1
FONT -FontForge-Zen Tokyo Zoo-Book-R-Normal--36-360-72-72-P-169-ISO10646-1
SIZE 36 72 72
FONTBOUNDINGBOX 47 48 -4 -8
COMMENT "Generated by fontforge, http://fontforge.sourceforge.net"
COMMENT "Copyright 2021 The Zen Tokyo Zoo Project Authors (https://github.com/googlefonts/zen-tokyo-zoo)"
STARTPROPERTIES 39
FOUNDRY "FontForge"
FAMILY_NAME "Zen Tokyo Zoo"
WEIGHT_NAME "Book"
SLANT "R"
SETWIDTH_NAME "Normal"
ADD_STYLE_NAME ""
PIXEL_SIZE 36
POINT_SIZE 360
RESOLUTION_X 72
RESOLUTION_Y 72
SPACING "P"
AVERAGE_WIDTH 169
CHARSET_REGISTRY "ISO10646"
CHARSET_ENCODING "1"
FONTNAME_REGISTRY ""
CHARSET_COLLECTIONS "ISO10646-1"
FONT_NAME "ZenTokyoZoo-Regular"
FACE_NAME "Zen Tokyo Zoo Regular"
COPYRIGHT "Copyright 2021 The Zen Tokyo Zoo Project Authors (https://github.com/googlefonts/zen-tokyo-zoo)"
FONT_VERSION "1.002; ttfautohint (v1.8.3)"
FONT_ASCENT 29
FONT_DESCENT 7
UNDERLINE_POSITION -5
UNDERLINE_THICKNESS 1
X_HEIGHT 14
CAP_HEIGHT 28
RAW_ASCENT 800
RAW_DESCENT 200
NORM_SPACE 10
RELATIVE_WEIGHT 40
RELATIVE_SETWIDTH 50
SUPERSCRIPT_X 0
SUPERSCRIPT_Y 12
SUPERSCRIPT_SIZE 21
SUBSCRIPT_X 0
SUBSCRIPT_Y 2
SUBSCRIPT_SIZE 21
AVG_LOWERCASE_WIDTH 148
AVG_UPPERCASE_WIDTH 272
ENDPROPERTIES
CHARS 338
STARTCHAR CR
ENCODING 13
SWIDTH 600 0
DWIDTH 22 0
BBX 1 1 0 0
BITMAP
00
ENDCHAR
STARTCHAR space
ENCODING 32
SWIDTH 280 0
DWIDTH 10 0
BBX 1 1 0 0
BITMAP
00
ENDCHAR
STARTCHAR exclam
ENCODING 33
SWIDTH 196 0
DWIDTH 7 0
BBX 3 15 2 0
BITMAP
A0
A0
A0
A0
A0
A0
A0
A0
A0
A0
A0
00
A0
A0
A0
ENDCHAR
STARTCHAR quotedbl
ENCODING 34
SWIDTH 302 0
DWIDTH 11 0
BBX 9 5 1 10
BITMAP
A280
A280
A280
A280
A280
ENDCHAR
STARTCHAR numbersign
ENCODING 35
SWIDTH 513 0
DWIDTH 18 0
BBX 15 15 2 0
BITMAP
0A68
1200
52FE
1700
1400
55FE
1400
00D0
FE94
00B8
FEAC
00A0
28A0
29A0
6920
ENDCHAR
STARTCHAR dollar
ENCODING 36
SWIDTH 379 0
DWIDTH 14 0
BBX 12 18 1 -2
BITMAP
0400
0400
3480
6460
D520
94A0
9000
DE00
6380
3860
0720
00B0
34B0
94A0
4460
34C0
1400
0400
ENDCHAR
STARTCHAR percent
ENCODING 37
SWIDTH 493 0
DWIDTH 18 0
BBX 16 15 1 0
BITMAP
3816
4624
9A68
AA50
BA90
C7A0
7D40
0240
06BC
0562
0959
1A55
1459
2462
683C
ENDCHAR
STARTCHAR ampersand
ENCODING 38
SWIDTH 487 0
DWIDTH 18 0
BBX 14 15 2 0
BITMAP
0F80
18C0
1760
25A0
2DA0
3520
1640
1B40
6914
C4A4
92CC
B368
9D20
4090
3E58
ENDCHAR
STARTCHAR quotesingle
ENCODING 39
SWIDTH 146 0
DWIDTH 5 0
BBX 3 5 1 10
BITMAP
A0
A0
A0
A0
A0
ENDCHAR
STARTCHAR parenleft
ENCODING 40
SWIDTH 210 0
DWIDTH 8 0
BBX 6 17 1 -1
BITMAP
24
28
48
50
50
D0
90
B0
B0
B0
90
90
50
50
58
28
2C
ENDCHAR
STARTCHAR parenright
ENCODING 41
SWIDTH 210 0
DWIDTH 8 0
BBX 5 17 1 -1
BITMAP
A0
90
50
58
68
28
28
28
28
28
28
28
28
48
50
50
B0
ENDCHAR
STARTCHAR asterisk
ENCODING 42
SWIDTH 358 0
DWIDTH 13 0
BBX 9 8 2 7
BITMAP
1400
9480
6300
8180
4200
2200
5500
6200
ENDCHAR
STARTCHAR plus
ENCODING 43
SWIDTH 394 0
DWIDTH 14 0
BBX 12 11 1 2
BITMAP
0900
0900
0900
0900
E970
0900
E970
0900
0900
0900
0900
ENDCHAR
STARTCHAR comma
ENCODING 44
SWIDTH 216 0
DWIDTH 8 0
BBX 5 5 1 -2
BITMAP
28
68
48
50
D0
ENDCHAR
STARTCHAR hyphen
ENCODING 45
SWIDTH 326 0
DWIDTH 12 0
BBX 8 3 2 6
BITMAP
FF
00
FF
ENDCHAR
STARTCHAR period
ENCODING 46
SWIDTH 176 0
DWIDTH 6 0
BBX 4 3 1 0
BITMAP
D0
D0
D0
ENDCHAR
STARTCHAR slash
ENCODING 47
SWIDTH 298 0
DWIDTH 11 0
BBX 9 15 1 0
BITMAP
0580
0D00
0900
0B00
1A00
1200
1600
1400
2400
2C00
2800
4800
5800
5000
9000
ENDCHAR
STARTCHAR zero
ENCODING 48
SWIDTH 306 0
DWIDTH 11 0
BBX 9 16 1 -1
BITMAP
3E00
6300
DD80
9480
B680
B680
B680
B680
B680
B680
B680
B680
9C80
4100
3F00
0800
ENDCHAR
STARTCHAR one
ENCODING 49
SWIDTH 306 0
DWIDTH 11 0
BBX 7 15 2 0
BITMAP
CA
0A
0A
CA
0A
0A
0A
0A
0A
0A
0A
0A
0A
0A
0A
ENDCHAR
STARTCHAR two
ENCODING 50
SWIDTH 299 0
DWIDTH 11 0
BBX 9 15 1 0
BITMAP
3E00
6300
DD00
9480
0480
0D00
1900
3200
2400
4C00
D800
0000
FF00
0000
FF00
ENDCHAR
STARTCHAR three
ENCODING 51
SWIDTH 324 0
DWIDTH 12 0
BBX 10 16 1 -1
BITMAP
1E00
6100
4080
9C80
9240
0080
0600
0180
0080
0480
0240
92C0
9C80
4180
3F00
0800
ENDCHAR
STARTCHAR four
ENCODING 52
SWIDTH 339 0
DWIDTH 12 0
BBX 10 15 1 0
BITMAP
0D80
0900
1A00
1200
3400
2400
6C00
4B40
0340
FB40
0340
0340
FB40
0340
0340
ENDCHAR
STARTCHAR five
ENCODING 53
SWIDTH 363 0
DWIDTH 13 0
BBX 9 16 2 -1
BITMAP
7F80
0000
0000
7F80
0000
5000
5000
5600
5100
5480
0680
9280
5C80
4180
3F00
0800
ENDCHAR
STARTCHAR six
ENCODING 54
SWIDTH 306 0
DWIDTH 11 0
BBX 9 16 1 -1
BITMAP
3E00
6300
DD80
9680
B000
B000
B000
B600
B300
B580
B480
B680
9C80
4100
3F00
0800
ENDCHAR
STARTCHAR seven
ENCODING 55
SWIDTH 298 0
DWIDTH 11 0
BBX 9 15 1 0
BITMAP
FF80
0000
0000
FF80
0000
0D00
0900
0B00
0A00
1A00
1200
1400
1400
2400
2C00
ENDCHAR
STARTCHAR eight
ENCODING 56
SWIDTH 306 0
DWIDTH 11 0
BBX 9 16 1 -1
BITMAP
3E00
6300
DD80
9480
B680
9180
CC80
6600
3300
C980
A480
B680
9C80
4100
3E00
0800
ENDCHAR
STARTCHAR nine
ENCODING 57
SWIDTH 306 0
DWIDTH 11 0
BBX 9 16 1 -1
BITMAP
3E00
6300
DD80
B480
9680
D680
4680
3680
0680
0680
0680
B680
9C80
4100
3E00
0800
ENDCHAR
STARTCHAR colon
ENCODING 58
SWIDTH 176 0
DWIDTH 6 0
BBX 4 9 1 0
BITMAP
D0
D0
D0
00
00
00
D0
D0
D0
ENDCHAR
STARTCHAR semicolon
ENCODING 59
SWIDTH 217 0
DWIDTH 8 0
BBX 5 10 1 -1
BITMAP
28
28
28
00
00
00
68
48
50
D0
ENDCHAR
STARTCHAR less
ENCODING 60
SWIDTH 450 0
DWIDTH 16 0
BBX 14 16 1 -1
BITMAP
0004
001C
0030
00C4
0318
0660
18C0
C600
3380
1CC0
0630
018C
00E4
0030
000C
0004
ENDCHAR
STARTCHAR equal
ENCODING 61
SWIDTH 344 0
DWIDTH 12 0
BBX 10 9 1 2
BITMAP
FFC0
0000
FFC0
0000
0000
0000
FFC0
0000
FFC0
ENDCHAR
STARTCHAR greater
ENCODING 62
SWIDTH 450 0
DWIDTH 16 0
BBX 14 15 1 0
BITMAP
C000
6000
1800
C600
3380
1CC0
0630
018C
06E0
1800
3380
C600
1800
6000
C000
ENDCHAR
STARTCHAR question
ENCODING 63
SWIDTH 346 0
DWIDTH 12 0
BBX 9 15 2 0
BITMAP
3C00
4300
9D00
A580
0480
0580
0900
1300
1600
3400
3400
3400
0000
3400
3400
ENDCHAR
STARTCHAR at
ENCODING 64
SWIDTH 490 0
DWIDTH 18 0
BBX 16 16 1 -1
BITMAP
07E0
1BF8
2C3C
501C
63EA
A7E6
AA65
AC65
AE65
A7DA
A3C2
503C
2C20
37C0
0FF0
0100
ENDCHAR
STARTCHAR A
ENCODING 65
SWIDTH 798 0
DWIDTH 29 0
BBX 27 29 1 0
BITMAP
002D0000
00294000
004A4000
005AC000
00524000
00956000
00B52000
01A4A000
012AB000
014A9000
035A5000
02514800
02916800
04B12800
05A0A400
0520B400
09409400
0B405200
0A5F4A00
12806B00
14802900
35BFA500
25003580
297FD480
6B001280
5A000A40
52000B40
94000940
B4000520
ENDCHAR
STARTCHAR B
ENCODING 66
SWIDTH 784 0
DWIDTH 28 0
BBX 25 29 2 0
BITMAP
A5FFC000
A4003000
A5FFCC00
A4006400
A5FF9200
A4004A00
A4002900
A4002900
A4002900
A4002900
A4004900
A5FFDA00
A4003200
A5FFC400
A4000D00
A4003100
A5FFE580
A4000480
A4001680
A4001280
A4001280
A4001680
A4003480
A5FFED00
A4001900
A5FFE200
A4000400
A4001800
A5FFE000
ENDCHAR
STARTCHAR C
ENCODING 67
SWIDTH 776 0
DWIDTH 28 0
BBX 26 31 1 -1
BITMAP
00010000
007FF800
01C00E00
031FE100
04703CC0
098FC600
13303900
36C00C00
2D800400
4B000000
5A000000
56000000
94000000
94000000
B4000000
B4000000
B4000000
94000000
94000000
56000000
5A000000
4B000000
2D800400
24C00C00
13703900
099FE600
04601CC0
031FE180
01C00600
007FF800
00030000
ENDCHAR
STARTCHAR D
ENCODING 68
SWIDTH 806 0
DWIDTH 29 0
BBX 26 29 2 0
BITMAP
A5FE0000
A401C000
A5FE7000
A4039800
A5FC6C00
A403B600
A400DB00
A4006D00
A4003580
A4001280
A4001A80
A4000AC0
A4000A40
A4000B40
A4000B40
A4000A40
A4000A40
A4001AC0
A4001280
A4003480
A4002D80
A400C900
A4039300
A5FE6600
A401CC00
A5FE1800
A4007000
A401C000
A5FE0000
ENDCHAR
STARTCHAR E
ENCODING 69
SWIDTH 677 0
DWIDTH 24 0
BBX 21 29 2 0
BITMAP
A5FFF8
A40000
A5FFF8
A40000
A5FFF8
A40000
A40000
A40000
A40000
A40000
A40000
A5FFE0
A40000
A40000
A5FFE0
A40000
A5FFE0
A40000
A40000
A40000
A40000
A40000
A40000
A5FFF8
A40000
A5FFF8
A40000
A40000
A5FFF8
ENDCHAR
STARTCHAR F
ENCODING 70
SWIDTH 677 0
DWIDTH 24 0
BBX 21 29 2 0
BITMAP
A5FFF8
A40000
A5FFF8
A40000
A5FFF8
A40000
A40000
A40000
A40000
A40000
A40000
A5FFE0
A40000
A40000
A5FFE0
A40000
A5FFE0
A40000
A40000
A40000
A40000
A40000
A40000
A40000
A40000
A40000
A40000
A40000
A40000
ENDCHAR
STARTCHAR G
ENCODING 71
SWIDTH 872 0
DWIDTH 31 0
BBX 29 31 1 -1
BITMAP
00010000
007FF800
01C00E00
031FE180
047038C0
098FC660
13303920
36C00C90
2D8006C0
4B000300
5A000200
56000000
94000000
94000000
B401FFF8
B4000000
B401FFF8
94000000
94000000
5601FFF8
5A000000
4B000368
2D800258
24C00C90
13703920
099FE660
04601CC0
031FF100
01C00E00
007FF800
00030000
ENDCHAR
STARTCHAR H
ENCODING 72
SWIDTH 781 0
DWIDTH 28 0
BBX 24 29 2 0
BITMAP
A40035
A40035
A40035
A40035
A40035
A40035
A40035
A40035
A40035
A40035
A40035
A5FFB5
A40035
A40035
A5FFB5
A40035
A5FFB5
A40035
A40035
A40035
A40035
A40035
A40035
A40035
A40035
A40035
A40035
A40035
A40035
ENDCHAR
STARTCHAR I
ENCODING 73
SWIDTH 262 0
DWIDTH 9 0
BBX 6 29 2 0
BITMAP
A4
A4
A4
A4
A4
A4
A4
A4
A4
A4
A4
A4
A4
A4
A4
A4
A4
A4
A4
A4
A4
A4
A4
A4
A4
A4
A4
A4
A4
ENDCHAR
STARTCHAR J
ENCODING 74
SWIDTH 674 0
DWIDTH 24 0
BBX 21 30 1 -1
BITMAP
0000A8
0000A8
0000A8
0000A8
0000A8
0000A8
0000A8
0000A8
0000A8
0000A8
0000A8
0000A8
0000A8
0000A8
0000A8
0000A8
0000A8
0000A8
A400A8
A400A8
A401A8
940128
960348
5B06D0
6CFD90
260320
11FC40
0C0180
03FF00
002000
ENDCHAR
STARTCHAR K
ENCODING 75
SWIDTH 739 0
DWIDTH 27 0
BBX 24 29 2 0
BITMAP
A400DB
A401B6
A40124
A40248
A406D8
A404B0
A40920
A41A40
A416C0
A42480
A44900
A46B00
A5A600
A49400
A64800
A76C00
A53400
A49200
A44900
A46D80
A436C0
A41240
A40920
A40490
A406D8
A40248
A40124
A40092
A400DB
ENDCHAR
STARTCHAR L
ENCODING 76
SWIDTH 604 0
DWIDTH 22 0
BBX 19 29 2 0
BITMAP
A40000
A40000
A40000
A40000
A40000
A40000
A40000
A40000
A40000
A40000
A40000
A40000
A40000
A40000
A40000
A40000
A40000
A40000
A40000
A40000
A40000
A40000
A40000
A5FFE0
A40000
A5FFE0
A40000
A40000
A5FFE0
ENDCHAR
STARTCHAR M
ENCODING 77
SWIDTH 909 0
DWIDTH 33 0
BBX 29 29 2 0
BITMAP
A4000168
A4000168
A5000568
A5000568
A5800968
A4801168
A6403568
A5602568
A5204968
A490D968
A6589568
A5692568
A5246968
A4925968
A4DB1168
A4492168
A424A168
A416C168
A41A4168
A4090168
A4050168
A4060168
A4020168
A4000168
A4000168
A4000168
A4000168
A4000168
A4000168
ENDCHAR
STARTCHAR N
ENCODING 78
SWIDTH 796 0
DWIDTH 29 0
BBX 25 29 2 0
BITMAP
A4001480
A4001480
A5001480
A5001480
A4801480
A4C01480
A5401480
A5201480
A5B01480
A4901480
A5481480
A52C1480
A5B41480
A4921480
A4491480
A46D9480
A4249480
A4125480
A41B5480
A40D1480
A4049480
A4025480
A4035480
A4011480
A4009480
A400D480
A4005480
A4001480
A4001480
ENDCHAR
STARTCHAR O
ENCODING 79
SWIDTH 894 0
DWIDTH 32 0
BBX 30 31 1 -1
BITMAP
00010000
007FF800
01C00E00
031FE300
047038C0
098FC660
13303B20
36C00C90
2D8006D0
4B000348
5A000128
560001AC
940000A4
940000B4
B4000094
B4000094
B4000094
940000B4
940000A4
560000AC
5A000128
4B000348
2D800250
24C00C90
13703920
099FE640
04601CC0
031FE300
01C00E00
007FF800
00030000
ENDCHAR
STARTCHAR P
ENCODING 80
SWIDTH 743 0
DWIDTH 27 0
BBX 24 29 2 0
BITMAP
A5FFC0
A40030
A5FFCC
A40064
A5FF92
A4004A
A40029
A40029
A40029
A40029
A40049
A5FFDA
A40032
A5FFC4
A4000C
A40030
A5FFE0
A40000
A40000
A40000
A40000
A40000
A40000
A40000
A40000
A40000
A40000
A40000
A40000
ENDCHAR
STARTCHAR Q
ENCODING 81
SWIDTH 911 0
DWIDTH 33 0
BBX 31 31 1 -1
BITMAP
00010000
007FF800
01C00E00
031FE300
047038C0
098FC640
13303B20
36C00D90
2D8006D0
4B000348
5A000168
560001AC
940000A4
940000B4
B4000094
B4000094
B4000094
940004B4
940006A4
5600132C
5A0009A8
4B0064C8
2D803268
24C01930
13702C98
099FE64C
04601B26
031FF198
01C00E48
007FF820
00030020
ENDCHAR
STARTCHAR R
ENCODING 82
SWIDTH 745 0
DWIDTH 27 0
BBX 24 29 2 0
BITMAP
A5FFC0
A40030
A5FFCC
A40064
A5FF92
A4004A
A40029
A40029
A40029
A40029
A40049
A5FFDA
A40032
A5FFC4
A4000C
A40030
A5FFE0
A40000
A40960
A40520
A404B0
A40290
A40258
A40148
A40128
A401A4
A40094
A400D2
A4004B
ENDCHAR
STARTCHAR S
ENCODING 83
SWIDTH 660 0
DWIDTH 24 0
BBX 22 31 1 -1
BITMAP
002000
03FF00
0CFCC0
170760
2C0090
58FC58
530668
D60128
940180
940000
960000
D98000
4C7000
638E00
30F180
1C1E60
0703B0
00E0D8
001C68
000328
0001A4
0000A4
0400A4
B401AC
930368
49FCD8
660390
31FE20
1C00C0
07FF00
002000
ENDCHAR
STARTCHAR T
ENCODING 84
SWIDTH 641 0
DWIDTH 23 0
BBX 23 29 0 0
BITMAP
FFFFFE
000000
FFFFFE
000000
FFFFFE
000000
005400
005400
005400
005400
005400
005400
005400
005400
005400
005400
005400
005400
005400
005400
005400
005400
005400
005400
005400
005400
005400
005400
005400
ENDCHAR
STARTCHAR U
ENCODING 85
SWIDTH 702 0
DWIDTH 25 0
BBX 21 30 2 -1
BITMAP
A400A8
A400A8
A400A8
A400A8
A400A8
A400A8
A400A8
A400A8
A400A8
A400A8
A400A8
A400A8
A400A8
A400A8
A400A8
A400A8
A400A8
A400A8
A400A8
A400A8
A401A8
940128
D60348
5B06D0
6CFD90
270320
19FC40
0C0180
03FF00
002000
ENDCHAR
STARTCHAR V
ENCODING 86
SWIDTH 758 0
DWIDTH 27 0
BBX 26 29 1 0
BITMAP
B4001AC0
94001680
52001480
5A002500
4A002D00
29002900
2D004A00
25005A00
14805200
16809400
1280B400
0A40A400
0B412800
09416800
05214800
05A25000
04A2D000
02929000
02D4A000
0255A000
01492000
01694000
01294000
00A54000
00B48000
00948000
00528000
005A0000
006B0000
ENDCHAR
STARTCHAR W
ENCODING 87
SWIDTH 972 0
DWIDTH 35 0
BBX 33 29 1 0
BITMAP
A402501280
9402901480
9402901480
5606A03500
5204A02500
4A05202900
4A05282900
2B0D484A00
2909484A00
250A485200
250AC85200
1592AC9400
1492A49400
129494A400
129594A400
0AD552A800
0A55522800
09494A4800
094B6A4800
052A295000
052A295000
04A2251000
04A6351000
029414A000
029414A000
025412A000
02501A8000
01480A4000
01680B4000
ENDCHAR
STARTCHAR X
ENCODING 88
SWIDTH 712 0
DWIDTH 26 0
BBX 24 29 1 0
BITMAP
DA00DA
6900B4
258124
348168
12C258
0B4690
0925B0
05A520
069340
025A40
034880
012580
00B500
009200
004B00
016900
012580
033480
025240
068B40
05A920
0924B0
0B4690
12C258
348168
2D8124
4900B4
5A00D2
B6004B
ENDCHAR
STARTCHAR Y
ENCODING 89
SWIDTH 769 0
DWIDTH 28 0
BBX 27 29 0 0
BITMAP
DB000D20
6D001B40
248012C0
12C02480
1A406D00
09204B00
05B09200
0691B400
02492C00
016D4800
01A4D000
0092B000
005B2000
00496000
00248000
00120000
00000000
00148000
00148000
00148000
00148000
00148000
00148000
00148000
00148000
00148000
00148000
00148000
00148000
ENDCHAR
STARTCHAR Z
ENCODING 90
SWIDTH 708 0
DWIDTH 25 0
BBX 25 29 0 0
BITMAP
1FFFB480
00006900
1FFE4B00
00009200
1FFCB400
00012C00
00034800
0002D000
00049000
000D2000
00096000
00124000
00168000
00258000
00690000
005B0000
00920000
01B40000
012C0000
03480000
02D00000
04900000
0D200000
096FFE00
12500000
16BFFE00
25800000
69000000
DAFFFE00
ENDCHAR
STARTCHAR bracketleft
ENCODING 91
SWIDTH 320 0
DWIDTH 12 0
BBX 8 17 2 -1
BITMAP
AF
A0
A0
AF
A0
A0
A0
A0
A0
A0
A0
A0
A0
A0
AF
A0
AF
ENDCHAR
STARTCHAR backslash
ENCODING 92
SWIDTH 298 0
DWIDTH 11 0
BBX 9 15 1 0
BITMAP
9000
5000
5800
4800
2800
2C00
2400
1400
1600
1200
1A00
0A00
0900
0D00
0580
ENDCHAR
STARTCHAR bracketright
ENCODING 93
SWIDTH 320 0
DWIDTH 12 0
BBX 8 17 2 -1
BITMAP
E9
09
09
E9
09
09
09
09
09
09
09
09
09
09
E9
09
E9
ENDCHAR
STARTCHAR asciicircum
ENCODING 94
SWIDTH 309 0
DWIDTH 11 0
BBX 7 7 2 8
BITMAP
10
10
30
28
64
54
9A
ENDCHAR
STARTCHAR underscore
ENCODING 95
SWIDTH 472 0
DWIDTH 17 0
BBX 13 3 2 0
BITMAP
FFF8
0000
FFF8
ENDCHAR
STARTCHAR grave
ENCODING 96
SWIDTH 195 0
DWIDTH 7 0
BBX 3 4 2 17
BITMAP
80
C0
40
20
ENDCHAR
STARTCHAR a
ENCODING 97
SWIDTH 414 0
DWIDTH 15 0
BBX 15 15 0 0
BITMAP
0680
04C0
0540
0D60
0920
0BA0
1AB0
1690
14D0
2458
2FC8
2828
4FE4
5834
D016
ENDCHAR
STARTCHAR b
ENCODING 98
SWIDTH 423 0
DWIDTH 15 0
BBX 13 15 1 0
BITMAP
DFC0
D030
D010
DFC8
D048
D048
DFF8
D030
DFC8
D028
D028
DFC8
D008
D030
DFE0
ENDCHAR
STARTCHAR c
ENCODING 99
SWIDTH 446 0
DWIDTH 16 0
BBX 14 15 1 0
BITMAP
07E0
1838
33CC
6C30
5810
9000
B000
B000
9000
9000
4C30
67E4
3008
1830
07C0
ENDCHAR
STARTCHAR d
ENCODING 100
SWIDTH 450 0
DWIDTH 16 0
BBX 14 15 1 0
BITMAP
DF80
D060
D010
DF88
D0CC
D024
D034
D014
D014
D024
D06C
DF88
D010
D060
DF80
ENDCHAR
STARTCHAR e
ENCODING 101
SWIDTH 363 0
DWIDTH 13 0
BBX 11 15 1 0
BITMAP
DFE0
D000
D000
DFE0
D000
D000
DFC0
D000
DFC0
D000
D000
DFE0
D000
D000
DFE0
ENDCHAR
STARTCHAR f
ENCODING 102
SWIDTH 365 0
DWIDTH 13 0
BBX 11 15 1 0
BITMAP
DFE0
D000
D000
DFE0
D000
D000
DFC0
D000
DFC0
D000
D000
D000
D000
D000
D000
ENDCHAR
STARTCHAR g
ENCODING 103
SWIDTH 483 0
DWIDTH 17 0
BBX 15 15 1 0
BITMAP
07E0
1838
33CC
6C34
5810
9000
B07E
B000
9000
907E
4C12
67E6
300C
1838
07E0
ENDCHAR
STARTCHAR h
ENCODING 104
SWIDTH 428 0
DWIDTH 15 0
BBX 13 15 1 0
BITMAP
D028
D028
D028
D028
D028
D028
DFE8
D028
DFE8
D028
D028
D028
D028
D028
D028
ENDCHAR
STARTCHAR i
ENCODING 105
SWIDTH 176 0
DWIDTH 6 0
BBX 4 15 1 0
BITMAP
D0
D0
D0
D0
D0
D0
D0
D0
D0
D0
D0
D0
D0
D0
D0
ENDCHAR
STARTCHAR j
ENCODING 106
SWIDTH 390 0
DWIDTH 14 0
BBX 12 15 1 0
BITMAP
0090
0090
0090
0090
0090
0090
0090
0090
2090
90B0
91A0
4F20
4060
30C0
1F00
ENDCHAR
STARTCHAR k
ENCODING 107
SWIDTH 381 0
DWIDTH 14 0
BBX 12 15 1 0
BITMAP
D0B0
D120
D360
D240
D680
D480
DD00
D700
D200
D900
DD80
D6C0
D240
D120
D090
ENDCHAR
STARTCHAR l
ENCODING 108
SWIDTH 330 0
DWIDTH 12 0
BBX 10 15 1 0
BITMAP
D000
D000
D000
D000
D000
D000
D000
D000
D000
D000
D000
DFC0
D000
D000
DFC0
ENDCHAR
STARTCHAR m
ENCODING 109
SWIDTH 501 0
DWIDTH 18 0
BBX 16 15 1 0
BITMAP
D009
D819
DC39
D669
D249
D999
DDB9
D6E9
D249
D109
D089
D009
D009
D009
D009
ENDCHAR
STARTCHAR n
ENCODING 110
SWIDTH 444 0
DWIDTH 16 0
BBX 14 15 1 0
BITMAP
D02C
D82C
DC2C
D42C
D22C
DB2C
D92C
D4AC
D2EC
D36C
D12C
D0AC
D0EC
D06C
D02C
ENDCHAR
STARTCHAR o
ENCODING 111
SWIDTH 494 0
DWIDTH 18 0
BBX 16 15 1 0
BITMAP
07E0
1838
33CC
6C36
581A
900A
B009
B009
9009
901A
4C32
67E6
300C
1838
07E0
ENDCHAR
STARTCHAR p
ENCODING 112
SWIDTH 412 0
DWIDTH 15 0
BBX 13 15 1 0
BITMAP
DFE0
D030
D010
DFC8
D048
D048
DFD0
D030
DFE0
D000
D000
D000
D000
D000
D000
ENDCHAR
STARTCHAR q
ENCODING 113
SWIDTH 494 0
DWIDTH 18 0
BBX 16 15 1 0
BITMAP
07E0
1838
33CC
6C36
581A
900B
B009
B009
903B
90DA
4C4E
67E6
3013
1838
07E4
ENDCHAR
STARTCHAR r
ENCODING 114
SWIDTH 412 0
DWIDTH 15 0
BBX 13 15 1 0
BITMAP
DFE0
D030
D010
DFC8
D048
D048
DFD0
D030
DFE0
D340
D120
D120
D0A0
D090
D058
ENDCHAR
STARTCHAR s
ENCODING 115
SWIDTH 379 0
DWIDTH 14 0
BBX 12 15 1 0
BITMAP
1F80
60C0
4F20
90A0
9000
DC00
4380
3860
0720
00A0
B0B0
9F20
4020
30C0
1F80
ENDCHAR
STARTCHAR t
ENCODING 116
SWIDTH 349 0
DWIDTH 13 0
BBX 12 15 0 0
BITMAP
FFF0
0000
0000
FFF0
0500
0500
0500
0500
0500
0500
0500
0500
0500
0500
0500
ENDCHAR
STARTCHAR u
ENCODING 117
SWIDTH 400 0
DWIDTH 14 0
BBX 12 15 1 0
BITMAP
D0D0
D0D0
D0D0
D0D0
D0D0
D0D0
D0D0
D0D0
D0D0
D0D0
5890
4F30
6020
30C0
0F80
ENDCHAR
STARTCHAR v
ENCODING 118
SWIDTH 394 0
DWIDTH 14 0
BBX 14 15 0 0
BITMAP
D02C
5828
4868
2848
2C50
24D0
3490
14A0
13A0
1B20
0B40
0940
0D40
0580
0480
ENDCHAR
STARTCHAR w
ENCODING 119
SWIDTH 521 0
DWIDTH 19 0
BBX 18 15 0 0
BITMAP
D0B140
50A340
592240
4932C0
695280
295680
2E5480
26CD80
16CD00
16AD00
16A900
13A600
0B2600
0B1600
0B1600
ENDCHAR
STARTCHAR x
ENCODING 120
SWIDTH 369 0
DWIDTH 13 0
BBX 13 15 0 0
BITMAP
58D8
2C90
25A0
1760
1240
0BC0
0D80
0C80
0E80
1A40
1340
3520
2CB0
4890
D858
ENDCHAR
STARTCHAR y
ENCODING 121
SWIDTH 422 0
DWIDTH 15 0
BBX 15 15 0 0
BITMAP
D836
6C24
2448
12D8
1A90
09A0
0DE0
06C0
0000
0280
0280
0280
0280
0280
0280
ENDCHAR
STARTCHAR z
ENCODING 122
SWIDTH 409 0
DWIDTH 15 0
BBX 12 15 1 0
BITMAP
FFF0
0000
0000
FFF0
0130
0260
04C0
0980
1300
2600
4C00
FFF0
0000
0000
FFF0
ENDCHAR
STARTCHAR braceleft
ENCODING 123
SWIDTH 443 0
DWIDTH 16 0
BBX 12 17 2 -1
BITMAP
0970
0900
0900
0970
0900
0900
0900
E900
0900
E900
0900
0900
0900
0900
0970
0900
0970
ENDCHAR
STARTCHAR bar
ENCODING 124
SWIDTH 196 0
DWIDTH 7 0
BBX 3 17 2 -1
BITMAP
A0
A0
A0
A0
A0
A0
A0
A0
A0
A0
A0
A0
A0
A0
A0
A0
A0
ENDCHAR
STARTCHAR braceright
ENCODING 125
SWIDTH 506 0
DWIDTH 18 0
BBX 12 17 4 -1
BITMAP
E500
0500
0500
E500
0500
0500
0500
0570
0500
0570
0500
0500
0500
0500
E500
0500
E500
ENDCHAR
STARTCHAR asciitilde
ENCODING 126
SWIDTH 450 0
DWIDTH 16 0
BBX 14 5 1 5
BITMAP
7E04
81F8
0000
7E04
81F8
ENDCHAR
STARTCHAR uni00A0
ENCODING 160
SWIDTH 280 0
DWIDTH 10 0
BBX 1 1 0 0
BITMAP
00
ENDCHAR
STARTCHAR exclamdown
ENCODING 161
SWIDTH 196 0
DWIDTH 7 0
BBX 3 15 2 -4
BITMAP
A0
A0
A0
00
A0
A0
A0
A0
A0
A0
A0
A0
A0
A0
A0
ENDCHAR
STARTCHAR cent
ENCODING 162
SWIDTH 305 0
DWIDTH 11 0
BBX 11 17 0 -2
BITMAP
0900
0900
0000
0F00
30C0
6F60
5980
D000
A000
F000
5880
6F40
30E0
1F80
0000
0900
0900
ENDCHAR
STARTCHAR sterling
ENCODING 163
SWIDTH 408 0
DWIDTH 15 0
BBX 14 15 0 0
BITMAP
1F00
60C0
4F60
5120
0000
FFC0
0000
FFC0
0000
0000
3C00
0000
FFFC
0000
FFFC
ENDCHAR
STARTCHAR currency
ENCODING 164
SWIDTH 401 0
DWIDTH 14 0
BBX 12 12 1 1
BITMAP
2060
90D0
CF10
59A0
16C0
3740
16C0
1880
4F30
9050
30C0
2060
ENDCHAR
STARTCHAR yen
ENCODING 165
SWIDTH 423 0
DWIDTH 15 0
BBX 15 15 0 0
BITMAP
D836
6C24
2448
12D8
1A90
09A0
05E0
06C0
0000
0280
3A98
0280
3A98
0280
0280
ENDCHAR
STARTCHAR brokenbar
ENCODING 166
SWIDTH 196 0
DWIDTH 7 0
BBX 3 16 2 0
BITMAP
A0
A0
A0
A0
A0
A0
A0
00
00
A0
A0
A0
A0
A0
A0
A0
ENDCHAR
STARTCHAR section
ENCODING 167
SWIDTH 322 0
DWIDTH 12 0
BBX 10 17 1 -1
BITMAP
3E00
6180
DE80
A380
B000
4E00
3180
8E80
A340
B980
4700
3980
0680
2280
9E80
6180
3F00
ENDCHAR
STARTCHAR dieresis
ENCODING 168
SWIDTH 287 0
DWIDTH 10 0
BBX 7 2 2 18
BITMAP
CE
CC
ENDCHAR
STARTCHAR copyright
ENCODING 169
SWIDTH 493 0
DWIDTH 18 0
BBX 16 16 1 0
BITMAP
07E0
1C30
300C
6004
4002
C3C2
8663
8C03
8803
8C03
C422
43C2
6004
300C
1818
07E0
ENDCHAR
STARTCHAR ordfeminine
ENCODING 170
SWIDTH 331 0
DWIDTH 12 0
BBX 8 6 2 9
BITMAP
2C
3C
5A
5A
A6
FD
ENDCHAR
STARTCHAR guillemotleft
ENCODING 171
SWIDTH 298 0
DWIDTH 11 0
BBX 8 7 1 4
BITMAP
11
66
D5
31
C4
66
11
ENDCHAR
STARTCHAR logicalnot
ENCODING 172
SWIDTH 420 0
DWIDTH 15 0
BBX 13 8 1 1
BITMAP
FFF8
0000
0000
FFF8
0000
0058
0058
0058
ENDCHAR
STARTCHAR uni00AD
ENCODING 173
SWIDTH 326 0
DWIDTH 12 0
BBX 8 3 2 6
BITMAP
FF
00
FF
ENDCHAR
STARTCHAR registered
ENCODING 174
SWIDTH 493 0
DWIDTH 18 0
BBX 16 16 1 0
BITMAP
07E0
1C30
300C
6004
4002
C5C2
8423
8423
85E3
8443
C442
4422
6004
300C
1818
07E0
ENDCHAR
STARTCHAR macron
ENCODING 175
SWIDTH 331 0
DWIDTH 12 0
BBX 8 1 2 18
BITMAP
FF
ENDCHAR
STARTCHAR degree
ENCODING 176
SWIDTH 298 0
DWIDTH 11 0
BBX 7 7 2 8
BITMAP
38
C4
B2
AA
B2
C4
78
ENDCHAR
STARTCHAR plusminus
ENCODING 177
SWIDTH 418 0
DWIDTH 15 0
BBX 13 15 1 0
BITMAP
0500
0500
0500
0500
7530
0500
7530
0500
0500
0500
0000
0000
FFF8
0000
FFF8
ENDCHAR
STARTCHAR uni00B2
ENCODING 178
SWIDTH 233 0
DWIDTH 8 0
BBX 5 8 2 7
BITMAP
70
90
E8
28
50
A0
F0
F0
ENDCHAR
STARTCHAR uni00B3
ENCODING 179
SWIDTH 228 0
DWIDTH 8 0
BBX 4 8 2 7
BITMAP
70
90
F0
30
10
30
F0
60
ENDCHAR
STARTCHAR acute
ENCODING 180
SWIDTH 195 0
DWIDTH 7 0
BBX 3 4 2 17
BITMAP
20
60
40
80
ENDCHAR
STARTCHAR uni00B5
ENCODING 181
SWIDTH 506 0
DWIDTH 18 0
BBX 15 19 2 -4
BITMAP
A0A0
A0A0
A0A0
A0A0
A0A0
A0A0
A0A0
A0A0
A0A0
A0A0
A1A0
AF2C
A040
A0F2
AF1E
A000
A000
A000
A000
ENDCHAR
STARTCHAR paragraph
ENCODING 182
SWIDTH 435 0
DWIDTH 16 0
BBX 13 15 1 0
BITMAP
3FF8
6000
C000
9FF8
B000
A148
9948
4148
3948
0148
0148
0148
0148
0148
0148
ENDCHAR
STARTCHAR periodcentered
ENCODING 183
SWIDTH 176 0
DWIDTH 6 0
BBX 4 3 1 6
BITMAP
D0
D0
D0
ENDCHAR
STARTCHAR cedilla
ENCODING 184
SWIDTH 261 0
DWIDTH 9 0
BBX 6 6 2 -6
BITMAP
60
78
C8
0C
88
F8
ENDCHAR
STARTCHAR uni00B9
ENCODING 185
SWIDTH 218 0
DWIDTH 8 0
BBX 4 8 2 7
BITMAP
B0
30
B0
30
30
30
30
30
ENDCHAR
STARTCHAR ordmasculine
ENCODING 186
SWIDTH 335 0
DWIDTH 12 0
BBX 8 8 2 7
BITMAP
3C
5A
A5
C3
A5
99
42
3C
ENDCHAR
STARTCHAR guillemotright
ENCODING 187
SWIDTH 298 0
DWIDTH 11 0
BBX 8 7 1 4
BITMAP
44
63
99
C4
11
63
44
ENDCHAR
STARTCHAR onequarter
ENCODING 188
SWIDTH 429 0
DWIDTH 15 0
BBX 13 14 1 0
BITMAP
F030
3050
30A0
30A0
3140
3180
3280
0330
0550
0A60
0CB8
14F8
18F8
2818
ENDCHAR
STARTCHAR onehalf
ENCODING 189
SWIDTH 437 0
DWIDTH 16 0
BBX 14 14 1 0
BITMAP
F050
F060
30A0
30C0
3140
3280
3338
0548
0674
0A74
0C28
1450
287C
307C
ENDCHAR
STARTCHAR threequarters
ENCODING 190
SWIDTH 409 0
DWIDTH 15 0
BBX 13 15 1 0
BITMAP
7010
A860
58A0
30C0
3940
EA80
8A80
7500
0650
0A60
0CA0
14E8
19E8
29E8
5028
ENDCHAR
STARTCHAR questiondown
ENCODING 191
SWIDTH 346 0
DWIDTH 12 0
BBX 9 15 2 -2
BITMAP
3400
3400
0000
3400
3400
3400
2400
4C00
9800
B000
A000
A480
9D00
4300
3E00
ENDCHAR
STARTCHAR Agrave
ENCODING 192
SWIDTH 798 0
DWIDTH 29 0
BBX 27 40 1 0
BITMAP
01200000
00B00000
00D00000
00480000
006C0000
00240000
00160000
001B0000
00000000
00000000
00000000
002D0000
00294000
004A4000
005AC000
00524000
00956000
00B52000
01A4A000
012AB000
014A9000
035A5000
02514800
02916800
04B12800
05A0A400
0520B400
09409400
0B405200
0A5F4A00
12806B00
14802900
35BFA500
25003580
297FD480
6B001280
5A000A40
52000B40
94000940
B4000520
ENDCHAR
STARTCHAR Aacute
ENCODING 193
SWIDTH 798 0
DWIDTH 29 0
BBX 27 40 1 0
BITMAP
00009000
0000B000
00012000
00034000
00024000
00068000
00058000
00090000
00000000
00000000
00000000
002D0000
00294000
004A4000
005AC000
00524000
00956000
00B52000
01A4A000
012AB000
014A9000
035A5000
02514800
02916800
04B12800
05A0A400
0520B400
09409400
0B405200
0A5F4A00
12806B00
14802900
35BFA500
25003580
297FD480
6B001280
5A000A40
52000B40
94000940
B4000520
ENDCHAR
STARTCHAR Acircumflex
ENCODING 194
SWIDTH 798 0
DWIDTH 29 0
BBX 27 40 1 0
BITMAP
00120000
00240000
006D0000
00488000
00924000
01236000
03612000
06C0D800
00000000
00000000
00000000
002D0000
00294000
004A4000
005AC000
00524000
00956000
00B52000
01A4A000
012AB000
014A9000
035A5000
02514800
02916800
04B12800
05A0A400
0520B400
09409400
0B405200
0A5F4A00
12806B00
14802900
35BFA500
25003580
297FD480
6B001280
5A000A40
52000B40
94000940
B4000520
ENDCHAR
STARTCHAR Atilde
ENCODING 195
SWIDTH 798 0
DWIDTH 29 0
BBX 27 36 1 0
BITMAP
00F01000
018C1000
01063000
0103E000
00000000
00000000
00000000
002D0000
00294000
004A4000
005AC000
00524000
00956000
00B52000
01A4A000
012AB000
014A9000
035A5000
02514800
02916800
04B12800
05A0A400
0520B400
09409400
0B405200
0A5F4A00
12806B00
14802900
35BFA500
25003580
297FD480
6B001280
5A000A40
52000B40
94000940
B4000520
ENDCHAR
STARTCHAR Adieresis
ENCODING 196
SWIDTH 798 0
DWIDTH 29 0
BBX 27 39 1 0
BITMAP
01C0F000
02218800
04110C00
04110400
04110400
02318800
03E0F000
00000000
00000000
00000000
002D0000
00294000
004A4000
005AC000
00524000
00956000
00B52000
01A4A000
012AB000
014A9000
035A5000
02514800
02916800
04B12800
05A0A400
0520B400
09409400
0B405200
0A5F4A00
12806B00
14802900
35BFA500
25003580
297FD480
6B001280
5A000A40
52000B40
94000940
B4000520
ENDCHAR
STARTCHAR Aring
ENCODING 197
SWIDTH 798 0
DWIDTH 29 0
BBX 27 40 1 0
BITMAP
000E0000
00310000
00208000
00208000
00208000
00208000
00310000
001F0000
00000000
00000000
00000000
002D0000
00294000
004A4000
005AC000
00524000
00956000
00B52000
01A4A000
012AB000
014A9000
035A5000
02514800
02916800
04B12800
05A0A400
0520B400
09409400
0B405200
0A5F4A00
12806B00
14802900
35BFA500
25003580
297FD480
6B001280
5A000A40
52000B40
94000940
B4000520
ENDCHAR
STARTCHAR AE
ENCODING 198
SWIDTH 1078 0
DWIDTH 39 0
BBX 37 29 1 0
BITMAP
000353FFF8
0001580000
00054BFFF8
0005480000
00094BFFF8
0009280000
0015280000
0015280000
002DA80000
0028A80000
004AAC0000
0052A5FFE0
0094A40000
00A4B40000
012895FFE0
0148940000
0250D4FFE0
0290540000
04A0560000
0D20520000
094F520000
1A40520000
12DF4A0000
34A04AFFF8
25804A0000
697F6A7FF8
4B002A0000
D2002B0000
B600297FF8
ENDCHAR
STARTCHAR Ccedilla
ENCODING 199
SWIDTH 776 0
DWIDTH 28 0
BBX 26 38 1 -8
BITMAP
00010000
007FF800
01C00E00
031FE100
04703CC0
098FC600
13303900
36C00C00
2D800400
4B000000
5A000000
56000000
94000000
94000000
B4000000
B4000000
B4000000
94000000
94000000
56000000
5A000000
4B000000
2D800400
24C00C00
13703900
099FE600
04601CC0
031FE180
01C00600
007FF800
000F0000
00080000
001F0000
00318000
00008000
00008000
00608000
003F0000
ENDCHAR
STARTCHAR Egrave
ENCODING 200
SWIDTH 677 0
DWIDTH 24 0
BBX 21 40 2 0
BITMAP
009000
00D000
004800
002C00
002400
001600
001A00
000900
000000
000000
000000
A5FFF8
A40000
A5FFF8
A40000
A5FFF8
A40000
A40000
A40000
A40000
A40000
A40000
A5FFE0
A40000
A40000
A5FFE0
A40000
A5FFE0
A40000
A40000
A40000
A40000
A40000
A40000
A5FFF8
A40000
A5FFF8
A40000
A40000
A5FFF8
ENDCHAR
STARTCHAR Eacute
ENCODING 201
SWIDTH 677 0
DWIDTH 24 0
BBX 21 40 2 0
BITMAP
000900
001A00
001200
003400
002C00
004800
005800
00B000
000000
000000
000000
A5FFF8
A40000
A5FFF8
A40000
A5FFF8
A40000
A40000
A40000
A40000
A40000
A40000
A5FFE0
A40000
A40000
A5FFE0
A40000
A5FFE0
A40000
A40000
A40000
A40000
A40000
A40000
A5FFF8
A40000
A5FFF8
A40000
A40000
A5FFF8
ENDCHAR
STARTCHAR Ecircumflex
ENCODING 202
SWIDTH 677 0
DWIDTH 24 0
BBX 21 40 2 0
BITMAP
006C00
004800
009200
01B100
036D80
024480
048240
0D8360
000000
000000
000000
A5FFF8
A40000
A5FFF8
A40000
A5FFF8
A40000
A40000
A40000
A40000
A40000
A40000
A5FFE0
A40000
A40000
A5FFE0
A40000
A5FFE0
A40000
A40000
A40000
A40000
A40000
A40000
A5FFF8
A40000
A5FFF8
A40000
A40000
A5FFF8
ENDCHAR
STARTCHAR Edieresis
ENCODING 203
SWIDTH 677 0
DWIDTH 24 0
BBX 21 39 2 0
BITMAP
0781E0
0CC330
086210
082410
086610
0C4230
0781E0
000000
000000
000000
A5FFF8
A40000
A5FFF8
A40000
A5FFF8
A40000
A40000
A40000
A40000
A40000
A40000
A5FFE0
A40000
A40000
A5FFE0
A40000
A5FFE0
A40000
A40000
A40000
A40000
A40000
A40000
A5FFF8
A40000
A5FFF8
A40000
A40000
A5FFF8
ENDCHAR
STARTCHAR Igrave
ENCODING 204
SWIDTH 262 0
DWIDTH 9 0
BBX 10 40 -2 0
BITMAP
9000
5800
6800
2400
3400
1200
0B00
0D00
0000
0000
0000
0A40
0A40
0A40
0A40
0A40
0A40
0A40
0A40
0A40
0A40
0A40
0A40
0A40
0A40
0A40
0A40
0A40
0A40
0A40
0A40
0A40
0A40
0A40
0A40
0A40
0A40
0A40
0A40
0A40
ENDCHAR
STARTCHAR Iacute
ENCODING 205
SWIDTH 262 0
DWIDTH 9 0
BBX 9 40 2 0
BITMAP
0480
0580
0900
1A00
1200
2400
2C00
4800
1000
0000
0000
A400
A400
A400
A400
A400
A400
A400
A400
A400
A400
A400
A400
A400
A400
A400
A400
A400
A400
A400
A400
A400
A400
A400
A400
A400
A400
A400
A400
A400
ENDCHAR
STARTCHAR Icircumflex
ENCODING 206
SWIDTH 262 0
DWIDTH 9 0
BBX 15 40 -3 0
BITMAP
0480
0D80
0920
1230
3690
6C48
486C
9036
0000
0000
0000
0520
0520
0520
0520
0520
0520
0520
0520
0520
0520
0520
0520
0520
0520
0520
0520
0520
0520
0520
0520
0520
0520
0520
0520
0520
0520
0520
0520
0520
ENDCHAR
STARTCHAR Idieresis
ENCODING 207
SWIDTH 262 0
DWIDTH 9 0
BBX 17 39 -4 0
BITMAP
3C0E00
461100
C22080
822080
C22080
461180
3C0F00
000000
000000
000000
029000
029000
029000
029000
029000
029000
029000
029000
029000
029000
029000
029000
029000
029000
029000
029000
029000
029000
029000
029000
029000
029000
029000
029000
029000
029000
029000
029000
029000
ENDCHAR
STARTCHAR Eth
ENCODING 208
SWIDTH 856 0
DWIDTH 31 0
BBX 30 29 0 0
BITMAP
0A9FE000
0A803C00
0A9FC700
0A803980
0A9FC6C0
0A803360
0A800DA0
0A8006D0
0A800258
0A800168
00000128
FFFE00A8
000000AC
000000A4
FFFE00A4
000000A4
FFFE00AC
00000128
00000168
0A800348
0A8006D8
0A800D90
0A803B20
0A9FE660
0A8018C0
0A9FE180
0A800700
0A803C00
0A9FE000
ENDCHAR
STARTCHAR Ntilde
ENCODING 209
SWIDTH 796 0
DWIDTH 29 0
BBX 25 36 2 0
BITMAP
01E02000
03102000
020C6000
0607C000
00000000
00000000
00000000
A4001480
A4001480
A5001480
A5001480
A4801480
A4C01480
A5401480
A5201480
A5B01480
A4901480
A5481480
A52C1480
A5B41480
A4921480
A4491480
A46D9480
A4249480
A4125480
A41B5480
A40D1480
A4049480
A4025480
A4035480
A4011480
A4009480
A400D480
A4005480
A4001480
A4001480
ENDCHAR
STARTCHAR Ograve
ENCODING 210
SWIDTH 894 0
DWIDTH 32 0
BBX 30 41 1 -1
BITMAP
00480000
00680000
00240000
00160000
00120000
00090000
000D0000
00048000
00000000
00000000
00010000
007FF800
01C00E00
031FE300
047038C0
098FC660
13303B20
36C00C90
2D8006D0
4B000348
5A000128
560001AC
940000A4
940000B4
B4000094
B4000094
B4000094
940000B4
940000A4
560000AC
5A000128
4B000348
2D800250
24C00C90
13703920
099FE640
04601CC0
031FE300
01C00E00
007FF800
00030000
ENDCHAR
STARTCHAR Oacute
ENCODING 211
SWIDTH 894 0
DWIDTH 32 0
BBX 30 41 1 -1
BITMAP
00004800
0000D000
00009000
0001A000
00016000
00024000
0002C000
00058000
00000000
00000000
00010000
007FF800
01C00E00
031FE300
047038C0
098FC660
13303B20
36C00C90
2D8006D0
4B000348
5A000128
560001AC
940000A4
940000B4
B4000094
B4000094
B4000094
940000B4
940000A4
560000AC
5A000128
4B000348
2D800250
24C00C90
13703920
099FE640
04601CC0
031FE300
01C00E00
007FF800
00030000
ENDCHAR
STARTCHAR Ocircumflex
ENCODING 212
SWIDTH 894 0
DWIDTH 32 0
BBX 30 41 1 -1
BITMAP
000D8000
00090000
00124000
00362000
002DB000
00489000
00904800
01B06C00
00000000
00000000
00010000
007FF800
01C00E00
031FE300
047038C0
098FC660
13303B20
36C00C90
2D8006D0
4B000348
5A000128
560001AC
940000A4
940000B4
B4000094
B4000094
B4000094
940000B4
940000A4
560000AC
5A000128
4B000348
2D800250
24C00C90
13703920
099FE640
04601CC0
031FE300
01C00E00
007FF800
00030000
ENDCHAR
STARTCHAR Otilde
ENCODING 213
SWIDTH 894 0
DWIDTH 32 0
BBX 30 37 1 -1
BITMAP
003C0400
00660400
00C18800
0080F000
00000000
00000000
00010000
007FF800
01C00E00
031FE300
047038C0
098FC660
13303B20
36C00C90
2D8006D0
4B000348
5A000128
560001AC
940000A4
940000B4
B4000094
B4000094
B4000094
940000B4
940000A4
560000AC
5A000128
4B000348
2D800250
24C00C90
13703920
099FE640
04601CC0
031FE300
01C00E00
007FF800
00030000
ENDCHAR
STARTCHAR Odieresis
ENCODING 214
SWIDTH 894 0
DWIDTH 32 0
BBX 30 40 1 -1
BITMAP
00F03C00
01886600
010C4200
0104C200
010C4200
01884200
00F03C00
00000000
00000000
00010000
007FF800
01C00E00
031FE300
047038C0
098FC660
13303B20
36C00C90
2D8006D0
4B000348
5A000128
560001AC
940000A4
940000B4
B4000094
B4000094
B4000094
940000B4
940000A4
560000AC
5A000128
4B000348
2D800250
24C00C90
13703920
099FE640
04601CC0
031FE300
01C00E00
007FF800
00030000
ENDCHAR
STARTCHAR multiply
ENCODING 215
SWIDTH 370 0
DWIDTH 13 0
BBX 11 10 1 2
BITMAP
3080
5900
C260
24C0
0980
1300
26C0
4C60
1920
3080
ENDCHAR
STARTCHAR Oslash
ENCODING 216
SWIDTH 894 0
DWIDTH 32 0
BBX 30 31 1 -1
BITMAP
00010100
007FF900
01C00A40
031FF6D0
04702490
098FC920
13305B60
36C01250
2D802498
4B006D28
5A00CB68
520092A4
940124A4
94036CB4
B4124894
B4249094
B46DB094
944920B4
949200A4
D5B600AC
516C0128
4A480348
669002D8
2DB00C90
09203920
124FE640
36C01CC0
24BFE300
09400E00
037FF800
02030000
ENDCHAR
STARTCHAR Ugrave
ENCODING 217
SWIDTH 702 0
DWIDTH 25 0
BBX 21 41 2 -1
BITMAP
090000
058000
048000
02C000
034000
012000
01A000
00D000
000000
000000
000000
A400A8
A400A8
A400A8
A400A8
A400A8
A400A8
A400A8
A400A8
A400A8
A400A8
A400A8
A400A8
A400A8
A400A8
A400A8
A400A8
A400A8
A400A8
A400A8
A400A8
A401A8
940128
D60348
5B06D0
6CFD90
270320
19FC40
0C0180
03FF00
002000
ENDCHAR
STARTCHAR Uacute
ENCODING 218
SWIDTH 702 0
DWIDTH 25 0
BBX 21 41 2 -1
BITMAP
000480
000580
000900
001A00
001200
002400
002C00
004800
000000
000000
000000
A400A8
A400A8
A400A8
A400A8
A400A8
A400A8
A400A8
A400A8
A400A8
A400A8
A400A8
A400A8
A400A8
A400A8
A400A8
A400A8
A400A8
A400A8
A400A8
A400A8
A401A8
940128
D60348
5B06D0
6CFD90
270320
19FC40
0C0180
03FF00
002000
ENDCHAR
STARTCHAR Ucircumflex
ENCODING 219
SWIDTH 702 0
DWIDTH 25 0
BBX 21 41 2 -1
BITMAP
009000
01B000
016C00
024400
049200
0D8900
090D80
1206C0
000000
000000
000000
A400A8
A400A8
A400A8
A400A8
A400A8
A400A8
A400A8
A400A8
A400A8
A400A8
A400A8
A400A8
A400A8
A400A8
A400A8
A400A8
A400A8
A400A8
A400A8
A400A8
A401A8
940128
D60348
5B06D0
6CFD90
270320
19FC40
0C0180
03FF00
002000
ENDCHAR
STARTCHAR Udieresis
ENCODING 220
SWIDTH 702 0
DWIDTH 25 0
BBX 21 40 2 -1
BITMAP
0F0380
118440
308820
208820
308820
118C60
0F07C0
000000
000000
000000
A400A8
A400A8
A400A8
A400A8
A400A8
A400A8
A400A8
A400A8
A400A8
A400A8
A400A8
A400A8
A400A8
A400A8
A400A8
A400A8
A400A8
A400A8
A400A8
A400A8
A401A8
940128
D60348
5B06D0
6CFD90
270320
19FC40
0C0180
03FF00
002000
ENDCHAR
STARTCHAR Yacute
ENCODING 221
SWIDTH 769 0
DWIDTH 28 0
BBX 27 40 0 0
BITMAP
00009000
0001B000
00012000
00034000
0002C000
00048000
00058000
000B0000
00000000
00000000
00000000
DB000D20
6D001B40
248012C0
12C02480
1A406D00
09204B00
05B09200
0691B400
02492C00
016D4800
01A4D000
0092B000
005B2000
00496000
00248000
00120000
00000000
00148000
00148000
00148000
00148000
00148000
00148000
00148000
00148000
00148000
00148000
00148000
00148000
ENDCHAR
STARTCHAR Thorn
ENCODING 222
SWIDTH 743 0
DWIDTH 27 0
BBX 24 29 2 0
BITMAP
A40000
A40000
A40000
A40000
A40000
A5FFC0
A40030
A40008
A5FFC4
A40062
A5FF92
A40069
A40029
A40029
A40029
A40069
A5FFCA
A4001A
A40034
A5FFCC
A40030
A5FFE0
A40000
A40000
A40000
A40000
A40000
A40000
A40000
ENDCHAR
STARTCHAR germandbls
ENCODING 223
SWIDTH 424 0
DWIDTH 15 0
BBX 13 15 1 0
BITMAP
1FC0
6020
4010
5F90
D050
D050
D3F0
D030
D3C8
D028
D028
D3C8
D008
D030
D3E0
ENDCHAR
STARTCHAR agrave
ENCODING 224
SWIDTH 414 0
DWIDTH 15 0
BBX 15 21 0 0
BITMAP
0400
0200
0200
0100
0000
0000
0680
04C0
0540
0D60
0920
0BA0
1AB0
1690
14D0
2458
2FC8
2828
4FE4
5834
D016
ENDCHAR
STARTCHAR aacute
ENCODING 225
SWIDTH 414 0
DWIDTH 15 0
BBX 15 21 0 0
BITMAP
0020
0040
00C0
0180
0000
0000
0680
04C0
0540
0D60
0920
0BA0
1AB0
1690
14D0
2458
2FC8
2828
4FE4
5834
D016
ENDCHAR
STARTCHAR acircumflex
ENCODING 226
SWIDTH 414 0
DWIDTH 15 0
BBX 15 21 0 0
BITMAP
0100
0200
04C0
0C60
0000
0000
0680
04C0
0540
0D60
0920
0BA0
1AB0
1690
14D0
2458
2FC8
2828
4FE4
5834
D016
ENDCHAR
STARTCHAR atilde
ENCODING 227
SWIDTH 414 0
DWIDTH 15 0
BBX 15 19 0 0
BITMAP
0F10
19E0
0000
0000
0680
04C0
0540
0D60
0920
0BA0
1AB0
1690
14D0
2458
2FC8
2828
4FE4
5834
D016
ENDCHAR
STARTCHAR adieresis
ENCODING 228
SWIDTH 414 0
DWIDTH 15 0
BBX 15 20 0 0
BITMAP
0E60
0C60
0000
0000
0000
0680
04C0
0540
0D60
0920
0BA0
1AB0
1690
14D0
2458
2FC8
2828
4FE4
5834
D016
ENDCHAR
STARTCHAR aring
ENCODING 229
SWIDTH 414 0
DWIDTH 15 0
BBX 15 21 0 0
BITMAP
0380
0240
0240
0380
0000
0000
0680
04C0
0540
0D60
0920
0BA0
1AB0
1690
14D0
2458
2FC8
2828
4FE4
5834
D016
ENDCHAR
STARTCHAR ae
ENCODING 230
SWIDTH 593 0
DWIDTH 21 0
BBX 21 15 0 0
BITMAP
009FF8
01B000
013000
035FF8
025800
04C800
05CFF0
094800
0B6FF0
122800
142800
27EFF8
282800
482C00
D827F8
ENDCHAR
STARTCHAR ccedilla
ENCODING 231
SWIDTH 446 0
DWIDTH 16 0
BBX 14 21 1 -6
BITMAP
07E0
1838
33CC
6C30
5810
9000
B000
B000
9000
9000
4C30
67E4
3008
1830
07C0
0200
0380
0440
0040
0440
0780
ENDCHAR
STARTCHAR egrave
ENCODING 232
SWIDTH 363 0
DWIDTH 13 0
BBX 11 21 1 0
BITMAP
0800
0C00
0400
0200
0000
0000
DFE0
D000
D000
DFE0
D000
D000
DFC0
D000
DFC0
D000
D000
DFE0
D000
D000
DFE0
ENDCHAR
STARTCHAR eacute
ENCODING 233
SWIDTH 363 0
DWIDTH 13 0
BBX 11 21 1 0
BITMAP
00C0
0080
0100
0300
0000
0000
DFE0
D000
D000
DFE0
D000
D000
DFC0
D000
DFC0
D000
D000
DFE0
D000
D000
DFE0
ENDCHAR
STARTCHAR ecircumflex
ENCODING 234
SWIDTH 363 0
DWIDTH 13 0
BBX 11 21 1 0
BITMAP
0200
0400
0980
10C0
0000
0000
DFE0
D000
D000
DFE0
D000
D000
DFC0
D000
DFC0
D000
D000
DFE0
D000
D000
DFE0
ENDCHAR
STARTCHAR edieresis
ENCODING 235
SWIDTH 363 0
DWIDTH 13 0
BBX 11 20 1 0
BITMAP
1DC0
18C0
0000
0000
0000
DFE0
D000
D000
DFE0
D000
D000
DFC0
D000
DFC0
D000
D000
DFE0
D000
D000
DFE0
ENDCHAR
STARTCHAR igrave
ENCODING 236
SWIDTH 176 0
DWIDTH 6 0
BBX 5 21 0 0
BITMAP
C0
40
20
30
00
00
68
68
68
68
68
68
68
68
68
68
68
68
68
68
68
ENDCHAR
STARTCHAR iacute
ENCODING 237
SWIDTH 176 0
DWIDTH 6 0
BBX 5 21 1 0
BITMAP
08
18
10
30
00
00
D0
D0
D0
D0
D0
D0
D0
D0
D0
D0
D0
D0
D0
D0
D0
ENDCHAR
STARTCHAR icircumflex
ENCODING 238
SWIDTH 176 0
DWIDTH 6 0
BBX 7 21 -1 0
BITMAP
18
30
24
C2
00
00
34
34
34
34
34
34
34
34
34
34
34
34
34
34
34
ENDCHAR
STARTCHAR idieresis
ENCODING 239
SWIDTH 176 0
DWIDTH 6 0
BBX 7 20 0 0
BITMAP
CE
CC
00
00
00
68
68
68
68
68
68
68
68
68
68
68
68
68
68
68
ENDCHAR
STARTCHAR eth
ENCODING 240
SWIDTH 455 0
DWIDTH 16 0
BBX 15 15 0 0
BITMAP
2FE0
2830
2808
2FC4
2832
0012
000A
FE0A
000A
281A
2832
2FC4
280C
2830
2FE0
ENDCHAR
STARTCHAR ntilde
ENCODING 241
SWIDTH 444 0
DWIDTH 16 0
BBX 14 19 1 0
BITMAP
0E20
11E0
0000
0000
D02C
D82C
DC2C
D42C
D22C
DB2C
D92C
D4AC
D2EC
D36C
D12C
D0AC
D0EC
D06C
D02C
ENDCHAR
STARTCHAR ograve
ENCODING 242
SWIDTH 494 0
DWIDTH 18 0
BBX 16 21 1 0
BITMAP
0400
0200
0300
0180
0000
0000
07E0
1838
33CC
6C36
581A
900A
B009
B009
9009
901A
4C32
67E6
300C
1838
07E0
ENDCHAR
STARTCHAR oacute
ENCODING 243
SWIDTH 494 0
DWIDTH 18 0
BBX 16 21 1 0
BITMAP
0060
0040
0080
0180
0000
0000
07E0
1838
33CC
6C36
581A
900A
B009
B009
9009
901A
4C32
67E6
300C
1838
07E0
ENDCHAR
STARTCHAR ocircumflex
ENCODING 244
SWIDTH 494 0
DWIDTH 18 0
BBX 16 21 1 0
BITMAP
0100
0200
06C0
0C60
0000
0000
07E0
1838
33CC
6C36
581A
900A
B009
B009
9009
901A
4C32
67E6
300C
1838
07E0
ENDCHAR
STARTCHAR otilde
ENCODING 245
SWIDTH 494 0
DWIDTH 18 0
BBX 16 19 1 0
BITMAP
0710
08E0
0000
0000
07E0
1838
33CC
6C36
581A
900A
B009
B009
9009
901A
4C32
67E6
300C
1838
07E0
ENDCHAR
STARTCHAR odieresis
ENCODING 246
SWIDTH 494 0
DWIDTH 18 0
BBX 16 20 1 0
BITMAP
0E60
0660
0000
0000
0000
07E0
1838
33CC
6C36
581A
900A
B009
B009
9009
901A
4C32
67E6
300C
1838
07E0
ENDCHAR
STARTCHAR divide
ENCODING 247
SWIDTH 418 0
DWIDTH 15 0
BBX 13 13 1 1
BITMAP
0300
0500
0500
0700
0000
FFF8
0000
FFF8
0000
0000
0700
0500
0700
ENDCHAR
STARTCHAR oslash
ENCODING 248
SWIDTH 494 0
DWIDTH 18 0
BBX 16 15 1 0
BITMAP
07E6
180C
23D8
4C16
5822
904A
B089
B189
9309
D61A
4C32
0BE4
100C
2438
6FE0
ENDCHAR
STARTCHAR ugrave
ENCODING 249
SWIDTH 400 0
DWIDTH 14 0
BBX 12 21 1 0
BITMAP
1800
0800
0400
0600
0000
0000
D0D0
D0D0
D0D0
D0D0
D0D0
D0D0
D0D0
D0D0
D0D0
D0D0
5890
4F30
6020
30C0
0F80
ENDCHAR
STARTCHAR uacute
ENCODING 250
SWIDTH 400 0
DWIDTH 14 0
BBX 12 21 1 0
BITMAP
0080
0100
0100
0200
0000
0000
D0D0
D0D0
D0D0
D0D0
D0D0
D0D0
D0D0
D0D0
D0D0
D0D0
5890
4F30
6020
30C0
0F80
ENDCHAR
STARTCHAR ucircumflex
ENCODING 251
SWIDTH 400 0
DWIDTH 14 0
BBX 12 21 1 0
BITMAP
0600
0C00
0900
3080
0000
0000
D0D0
D0D0
D0D0
D0D0
D0D0
D0D0
D0D0
D0D0
D0D0
D0D0
5890
4F30
6020
30C0
0F80
ENDCHAR
STARTCHAR udieresis
ENCODING 252
SWIDTH 400 0
DWIDTH 14 0
BBX 12 20 1 0
BITMAP
19C0
1980
0000
0000
0000
D0D0
D0D0
D0D0
D0D0
D0D0
D0D0
D0D0
D0D0
D0D0
D0D0
5890
4F30
6020
30C0
0F80
ENDCHAR
STARTCHAR yacute
ENCODING 253
SWIDTH 422 0
DWIDTH 15 0
BBX 15 21 0 0
BITMAP
0040
0040
0080
0180
0000
0000
D836
6C24
2448
12D8
1A90
09A0
0DE0
06C0
0000
0280
0280
0280
0280
0280
0280
ENDCHAR
STARTCHAR thorn
ENCODING 254
SWIDTH 412 0
DWIDTH 15 0
BBX 13 15 1 0
BITMAP
D000
D000
D000
DFC0
D030
DFD0
D058
D048
DFC8
D010
D030
DFE0
D000
D000
D000
ENDCHAR
STARTCHAR ydieresis
ENCODING 255
SWIDTH 422 0
DWIDTH 15 0
BBX 15 20 0 0
BITMAP
0E60
0C60
0000
0000
0000
D836
6C24
2448
12D8
1A90
09A0
0DE0
06C0
0000
0280
0280
0280
0280
0280
0280
ENDCHAR
STARTCHAR Edotaccent
ENCODING 278
SWIDTH 677 0
DWIDTH 24 0
BBX 21 34 2 0
BITMAP
001800
003C00
001800
000000
000000
A5FFF8
A40000
A5FFF8
A40000
A5FFF8
A40000
A40000
A40000
A40000
A40000
A40000
A5FFE0
A40000
A40000
A5FFE0
A40000
A5FFE0
A40000
A40000
A40000
A40000
A40000
A40000
A5FFF8
A40000
A5FFF8
A40000
A40000
A5FFF8
ENDCHAR
STARTCHAR edotaccent
ENCODING 279
SWIDTH 363 0
DWIDTH 13 0
BBX 11 20 1 0
BITMAP
0700
0700
0700
0000
0000
DFE0
D000
D000
DFE0
D000
D000
DFC0
D000
DFC0
D000
D000
DFE0
D000
D000
DFE0
ENDCHAR
STARTCHAR dotlessi
ENCODING 305
SWIDTH 176 0
DWIDTH 6 0
BBX 4 15 1 0
BITMAP
D0
D0
D0
D0
D0
D0
D0
D0
D0
D0
D0
D0
D0
D0
D0
ENDCHAR
STARTCHAR OE
ENCODING 338
SWIDTH 1221 0
DWIDTH 44 0
BBX 42 29 1 0
BITMAP
001FEB5FFFC0
00E00B400000
039FEB5FFFC0
06700B400000
0D8FEB5FFFC0
1B700B400000
36C00B400000
2D800B400000
6B000B400000
52000B400000
56000B400000
94000B5FFF00
94000B400000
B4000B400000
B4000B5FFF00
94000B400000
94000B5FFF00
D6000B400000
52000B400000
4B000B400000
6D000B400000
24C00B400000
32700B400000
199FEB5FFFC0
08E00B400000
061FEB5FFFC0
03800B400000
00E00B400000
001FEB5FFFC0
ENDCHAR
STARTCHAR oe
ENCODING 339
SWIDTH 637 0
DWIDTH 23 0
BBX 21 15 1 0
BITMAP
07FFF8
182C00
202C00
47DBF8
4C2C00
902C00
902BF0
B02C00
902BF0
902C00
482C00
47DBF8
202C00
182C00
07FFF8
ENDCHAR
STARTCHAR Wcircumflex
ENCODING 372
SWIDTH 972 0
DWIDTH 35 0
BBX 33 40 1 0
BITMAP
0002400000
0004800000
000DB00000
0009100000
0012480000
00366C0000
006C360000
00D81B0000
0000000000
0000000000
0000000000
A402501280
9402901480
9402901480
5606A03500
5204A02500
4A05202900
4A05282900
2B0D484A00
2909484A00
250A485200
250AC85200
1592AC9400
1492A49400
129494A400
129594A400
0AD552A800
0A55522800
09494A4800
094B6A4800
052A295000
052A295000
04A2251000
04A6351000
029414A000
029414A000
025412A000
02501A8000
01480A4000
01680B4000
ENDCHAR
STARTCHAR wcircumflex
ENCODING 373
SWIDTH 521 0
DWIDTH 19 0
BBX 18 21 0 0
BITMAP
00C000
008000
012000
021800
000000
000000
D0B140
50A340
592240
4932C0
695280
295680
2E5480
26CD80
16CD00
16AD00
16A900
13A600
0B2600
0B1600
0B1600
ENDCHAR
STARTCHAR Ycircumflex
ENCODING 374
SWIDTH 769 0
DWIDTH 28 0
BBX 27 40 0 0
BITMAP
001B0000
00360000
00248000
0048C000
00DA4000
00912000
01209000
0340D800
00000000
00000000
00000000
DB000D20
6D001B40
248012C0
12C02480
1A406D00
09204B00
05B09200
0691B400
02492C00
016D4800
01A4D000
0092B000
005B2000
00496000
00248000
00120000
00000000
00148000
00148000
00148000
00148000
00148000
00148000
00148000
00148000
00148000
00148000
00148000
00148000
ENDCHAR
STARTCHAR ycircumflex
ENCODING 375
SWIDTH 422 0
DWIDTH 15 0
BBX 15 21 0 0
BITMAP
0100
0200
04C0
0C60
0000
0000
D836
6C24
2448
12D8
1A90
09A0
0DE0
06C0
0000
0280
0280
0280
0280
0280
0280
ENDCHAR
STARTCHAR Ydieresis
ENCODING 376
SWIDTH 769 0
DWIDTH 28 0
BBX 27 39 0 0
BITMAP
01E07800
03308C00
02118400
06190400
02110400
02108C00
01E07800
00000000
00000000
00000000
DB000D20
6D001B40
248012C0
12C02480
1A406D00
09204B00
05B09200
0691B400
02492C00
016D4800
01A4D000
0092B000
005B2000
00496000
00248000
00120000
00000000
00148000
00148000
00148000
00148000
00148000
00148000
00148000
00148000
00148000
00148000
00148000
00148000
ENDCHAR
STARTCHAR circumflex
ENCODING 710
SWIDTH 298 0
DWIDTH 11 0
BBX 7 4 2 17
BITMAP
10
20
4C
C6
ENDCHAR
STARTCHAR dotaccent
ENCODING 729
SWIDTH 212 0
DWIDTH 8 0
BBX 3 3 2 17
BITMAP
60
E0
60
ENDCHAR
STARTCHAR ring
ENCODING 730
SWIDTH 212 0
DWIDTH 8 0
BBX 4 4 2 17
BITMAP
60
90
90
E0
ENDCHAR
STARTCHAR tilde
ENCODING 732
SWIDTH 329 0
DWIDTH 12 0
BBX 8 2 2 17
BITMAP
71
8E
ENDCHAR
STARTCHAR gravecomb
ENCODING 768
SWIDTH 0 0
DWIDTH 0 0
BBX 3 4 2 17
BITMAP
80
C0
40
20
ENDCHAR
STARTCHAR acutecomb
ENCODING 769
SWIDTH 0 0
DWIDTH 0 0
BBX 3 4 2 17
BITMAP
20
60
40
80
ENDCHAR
STARTCHAR uni0302
ENCODING 770
SWIDTH 0 0
DWIDTH 0 0
BBX 7 4 2 17
BITMAP
10
20
4C
C6
ENDCHAR
STARTCHAR tildecomb
ENCODING 771
SWIDTH 0 0
DWIDTH 0 0
BBX 8 2 2 17
BITMAP
71
8E
ENDCHAR
STARTCHAR uni0307
ENCODING 775
SWIDTH 0 0
DWIDTH 0 0
BBX 3 3 2 17
BITMAP
60
E0
60
ENDCHAR
STARTCHAR uni0308
ENCODING 776
SWIDTH 0 0
DWIDTH 0 0
BBX 7 2 2 18
BITMAP
CE
CC
ENDCHAR
STARTCHAR uni030A
ENCODING 778
SWIDTH 0 0
DWIDTH 0 0
BBX 4 4 2 17
BITMAP
60
90
90
E0
ENDCHAR
STARTCHAR uni0327
ENCODING 807
SWIDTH 0 0
DWIDTH 0 0
BBX 6 6 2 -6
BITMAP
60
78
C8
0C
88
F8
ENDCHAR
STARTCHAR Wgrave
ENCODING 7808
SWIDTH 972 0
DWIDTH 35 0
BBX 33 40 1 0
BITMAP
000D000000
0004800000
0006800000
0002400000
0001600000
0001200000
0000900000
0000D80000
0000000000
0000000000
0000000000
A402501280
9402901480
9402901480
5606A03500
5204A02500
4A05202900
4A05282900
2B0D484A00
2909484A00
250A485200
250AC85200
1592AC9400
1492A49400
129494A400
129594A400
0AD552A800
0A55522800
09494A4800
094B6A4800
052A295000
052A295000
04A2251000
04A6351000
029414A000
029414A000
025412A000
02501A8000
01480A4000
01680B4000
ENDCHAR
STARTCHAR wgrave
ENCODING 7809
SWIDTH 521 0
DWIDTH 19 0
BBX 18 21 0 0
BITMAP
008000
00C000
004000
002000
000000
000000
D0B140
50A340
592240
4932C0
695280
295680
2E5480
26CD80
16CD00
16AD00
16A900
13A600
0B2600
0B1600
0B1600
ENDCHAR
STARTCHAR Wacute
ENCODING 7810
SWIDTH 972 0
DWIDTH 35 0
BBX 33 40 1 0
BITMAP
0000D80000
0000900000
0001A00000
0001200000
0002400000
0002C00000
0004800000
000D000000
0000000000
0000000000
0000000000
A402501280
9402901480
9402901480
5606A03500
5204A02500
4A05202900
4A05282900
2B0D484A00
2909484A00
250A485200
250AC85200
1592AC9400
1492A49400
129494A400
129594A400
0AD552A800
0A55522800
09494A4800
094B6A4800
052A295000
052A295000
04A2251000
04A6351000
029414A000
029414A000
025412A000
02501A8000
01480A4000
01680B4000
ENDCHAR
STARTCHAR wacute
ENCODING 7811
SWIDTH 521 0
DWIDTH 19 0
BBX 18 21 0 0
BITMAP
002000
006000
004000
008000
000000
000000
D0B140
50A340
592240
4932C0
695280
295680
2E5480
26CD80
16CD00
16AD00
16A900
13A600
0B2600
0B1600
0B1600
ENDCHAR
STARTCHAR Wdieresis
ENCODING 7812
SWIDTH 972 0
DWIDTH 35 0
BBX 33 39 1 0
BITMAP
00380E0000
0046310000
0082208000
0082208000
0082208000
0046310000
003C1E0000
0000000000
0000000000
0000000000
A402501280
9402901480
9402901480
5606A03500
5204A02500
4A05202900
4A05282900
2B0D484A00
2909484A00
250A485200
250AC85200
1592AC9400
1492A49400
129494A400
129594A400
0AD552A800
0A55522800
09494A4800
094B6A4800
052A295000
052A295000
04A2251000
04A6351000
029414A000
029414A000
025412A000
02501A8000
01480A4000
01680B4000
ENDCHAR
STARTCHAR wdieresis
ENCODING 7813
SWIDTH 521 0
DWIDTH 19 0
BBX 18 20 0 0
BITMAP
033800
031800
000000
000000
000000
D0B140
50A340
592240
4932C0
695280
295680
2E5480
26CD80
16CD00
16AD00
16A900
13A600
0B2600
0B1600
0B1600
ENDCHAR
STARTCHAR uni1E9E
ENCODING 7838
SWIDTH 784 0
DWIDTH 28 0
BBX 25 29 2 0
BITMAP
A5FFFC00
A4000000
A5FFFC00
A4000000
A5FFFC00
A4000000
A4000000
A4016C00
A4025800
A4069000
A405B000
A4092000
A40B4800
A412C400
A434B200
A4259900
A46B6D00
A4003580
A4001480
A4001680
A4001680
A4001480
A4003480
A47FED00
A4001900
A47FE200
A4000600
A4001800
A47FF000
ENDCHAR
STARTCHAR Ygrave
ENCODING 7922
SWIDTH 769 0
DWIDTH 28 0
BBX 27 40 0 0
BITMAP
002C0000
00240000
00120000
001A0000
00090000
00058000
00048000
0002C000
00000000
00000000
00000000
DB000D20
6D001B40
248012C0
12C02480
1A406D00
09204B00
05B09200
0691B400
02492C00
016D4800
01A4D000
0092B000
005B2000
00496000
00248000
00120000
00000000
00148000
00148000
00148000
00148000
00148000
00148000
00148000
00148000
00148000
00148000
00148000
00148000
ENDCHAR
STARTCHAR ygrave
ENCODING 7923
SWIDTH 422 0
DWIDTH 15 0
BBX 15 21 0 0
BITMAP
0200
0100
0100
0080
0000
0000
D836
6C24
2448
12D8
1A90
09A0
0DE0
06C0
0000
0280
0280
0280
0280
0280
0280
ENDCHAR
STARTCHAR endash
ENCODING 8211
SWIDTH 507 0
DWIDTH 18 0
BBX 14 3 2 6
BITMAP
FFFC
0000
FFFC
ENDCHAR
STARTCHAR emdash
ENCODING 8212
SWIDTH 552 0
DWIDTH 20 0
BBX 16 3 2 6
BITMAP
FFFF
0000
FFFF
ENDCHAR
STARTCHAR quoteleft
ENCODING 8216
SWIDTH 146 0
DWIDTH 5 0
BBX 3 5 1 10
BITMAP
80
80
A0
A0
A0
ENDCHAR
STARTCHAR quoteright
ENCODING 8217
SWIDTH 146 0
DWIDTH 5 0
BBX 3 5 1 10
BITMAP
A0
A0
A0
20
20
ENDCHAR
STARTCHAR quotesinglbase
ENCODING 8218
SWIDTH 146 0
DWIDTH 5 0
BBX 3 5 1 -5
BITMAP
A0
A0
A0
20
20
ENDCHAR
STARTCHAR quotedblleft
ENCODING 8220
SWIDTH 297 0
DWIDTH 11 0
BBX 9 5 1 10
BITMAP
8400
8400
A480
A480
A480
ENDCHAR
STARTCHAR quotedblright
ENCODING 8221
SWIDTH 297 0
DWIDTH 11 0
BBX 9 5 1 10
BITMAP
A480
A480
A480
2080
2080
ENDCHAR
STARTCHAR quotedblbase
ENCODING 8222
SWIDTH 297 0
DWIDTH 11 0
BBX 9 5 1 -5
BITMAP
A480
A480
A480
2080
2080
ENDCHAR
STARTCHAR bullet
ENCODING 8226
SWIDTH 302 0
DWIDTH 11 0
BBX 7 7 2 4
BITMAP
38
C4
82
82
82
C6
7C
ENDCHAR
STARTCHAR ellipsis
ENCODING 8230
SWIDTH 528 0
DWIDTH 19 0
BBX 17 3 1 0
BITMAP
D14580
D14580
D14580
ENDCHAR
STARTCHAR guilsinglleft
ENCODING 8249
SWIDTH 178 0
DWIDTH 6 0
BBX 4 7 1 4
BITMAP
10
60
D0
30
C0
60
10
ENDCHAR
STARTCHAR guilsinglright
ENCODING 8250
SWIDTH 178 0
DWIDTH 6 0
BBX 4 7 1 4
BITMAP
40
60
90
C0
10
60
40
ENDCHAR
STARTCHAR fraction
ENCODING 8260
SWIDTH 362 0
DWIDTH 13 0
BBX 11 15 1 0
BITMAP
01A0
0160
0240
02C0
0480
0580
0900
0A00
1200
3400
2400
6800
4800
D000
B000
ENDCHAR
STARTCHAR uni2074
ENCODING 8308
SWIDTH 204 0
DWIDTH 7 0
BBX 5 8 1 7
BITMAP
30
50
60
A0
18
F8
F8
18
ENDCHAR
STARTCHAR Euro
ENCODING 8364
SWIDTH 462 0
DWIDTH 17 0
BBX 16 15 0 0
BITMAP
01F0
060C
09F3
1318
240C
0000
FF00
0000
FF00
0000
360C
11F3
0806
060C
01F0
ENDCHAR
STARTCHAR trademark
ENCODING 8482
SWIDTH 461 0
DWIDTH 17 0
BBX 15 7 0 8
BITMAP
FDC6
01EA
11BA
1192
1182
1182
1182
ENDCHAR
STARTCHAR minus
ENCODING 8722
SWIDTH 420 0
DWIDTH 15 0
BBX 13 3 1 6
BITMAP
FFF8
0000
FFF8
ENDCHAR
STARTCHAR uni2215
ENCODING 8725
SWIDTH 278 0
DWIDTH 10 0
BBX 9 15 1 0
BITMAP
0580
0500
0900
0B00
0A00
1200
1600
1400
2400
2C00
2800
4800
5800
5000
9000
ENDCHAR
STARTCHAR .notdef
ENCODING -1
SWIDTH 500 0
DWIDTH 18 0
BBX 14 41 2 -8
BITMAP
FFFC
FFFC
C00C
C00C
C00C
C00C
C00C
C00C
C00C
C00C
C00C
C00C
C00C
C00C
C00C
C00C
C00C
C00C
C00C
C00C
C00C
C00C
C00C
C00C
C00C
C00C
C00C
C00C
C00C
C00C
C00C
C00C
C00C
C00C
C00C
C00C
C00C
C00C
C00C
FFFC
FFFC
ENDCHAR
STARTCHAR NULL
ENCODING -1
SWIDTH 600 0
DWIDTH 22 0
BBX 1 1 0 0
BITMAP
00
ENDCHAR
STARTCHAR acutecomb.case
ENCODING -1
SWIDTH 0 0
DWIDTH 0 0
BBX 8 8 2 32
BITMAP
09
0B
12
34
24
68
58
90
ENDCHAR
STARTCHAR ampersand.case
ENCODING -1
SWIDTH 797 0
DWIDTH 29 0
BBX 26 31 1 -1
BITMAP
00080000
00FF0000
013CC000
02C34000
0581A000
053CB000
0966D000
0B425000
0B425000
0942D000
09649000
05A9A000
04926000
0258C000
036D0000
19340000
30920400
66CB0C00
486D8900
D3249240
961246C0
B4196D80
B409B100
94049200
D2024800
49FB6C00
66053400
33F89200
18024900
07FC6D80
00400000
ENDCHAR
STARTCHAR asciicircum.case
ENCODING -1
SWIDTH 540 0
DWIDTH 19 0
BBX 18 16 1 14
BITMAP
008000
008000
018000
012000
034000
025000
049000
05A800
096800
1A2400
121600
341200
2C0B00
480D00
580480
B006C0
ENDCHAR
STARTCHAR asciitilde.case
ENCODING -1
SWIDTH 640 0
DWIDTH 23 0
BBX 19 8 2 12
BITMAP
3F0000
E1C020
807060
3F1FC0
C0E020
3F1FC0
C0E020
803FC0
ENDCHAR
STARTCHAR asterisk.case
ENCODING -1
SWIDTH 482 0
DWIDTH 17 0
BBX 14 13 2 16
BITMAP
0500
0500
0500
4518
7070
8004
E03C
1020
1040
1060
2520
6C90
1840
ENDCHAR
STARTCHAR at.case
ENCODING -1
SWIDTH 915 0
DWIDTH 33 0
BBX 30 31 2 -1
BITMAP
00020000
007FF800
01800E00
061FC300
0C703880
19800640
32000320
240FA890
6830E8D0
48402848
D08FA868
9198E828
B120282C
A1602824
A1402824
A1402824
A1402824
A140282C
B1A02828
90906C48
D04FA798
58307010
681FD820
240007C0
32000000
19800000
0CE01800
063FE000
01C00E00
007FF000
00020000
ENDCHAR
STARTCHAR backslash.case
ENCODING -1
SWIDTH 504 0
DWIDTH 18 0
BBX 18 34 0 -2
BITMAP
D60000
520000
4A0000
6B0000
290000
250000
358000
148000
128000
1AC000
0A4000
094000
0D6000
052000
04A000
06B000
029000
025000
035800
014800
012800
01AC00
00A400
009400
00D600
005200
004A00
006B00
002900
002500
003580
001480
001280
001AC0
ENDCHAR
STARTCHAR bar.case
ENCODING -1
SWIDTH 262 0
DWIDTH 9 0
BBX 6 34 2 -2
BITMAP
A4
A4
A4
A4
A4
A4
A4
A4
A4
A4
A4
A4
A4
A4
A4
A4
A4
A4
A4
A4
A4
A4
A4
A4
A4
A4
A4
A4
A4
A4
A4
A4
A4
A4
ENDCHAR
STARTCHAR braceleft.case
ENCODING -1
SWIDTH 504 0
DWIDTH 18 0
BBX 14 33 2 -2
BITMAP
095C
0940
095C
0940
0940
095C
0940
0940
0940
0940
0940
0940
0940
0940
E940
0940
E940
0940
E940
0940
0940
0940
0940
0940
0940
0940
0940
095C
0940
0940
095C
0940
095C
ENDCHAR
STARTCHAR braceright.case
ENCODING -1
SWIDTH 506 0
DWIDTH 18 0
BBX 14 33 2 -2
BITMAP
E940
0940
E940
0940
0940
E940
0940
0940
0940
0940
0940
0940
0940
0940
095C
0940
095C
0940
095C
0940
0940
0940
0940
0940
0940
0940
0940
E940
0940
0940
E940
0940
E940
ENDCHAR
STARTCHAR bracketleft.case
ENCODING -1
SWIDTH 453 0
DWIDTH 16 0
BBX 13 33 2 -2
BITMAP
A5F8
A400
A5F8
A400
A400
A5F8
A400
A400
A400
A400
A400
A400
A400
A400
A400
A400
A400
A400
A400
A400
A400
A400
A400
A400
A400
A400
A400
A5F8
A400
A400
A5F8
A400
A5F8
ENDCHAR
STARTCHAR bracketright.case
ENCODING -1
SWIDTH 453 0
DWIDTH 16 0
BBX 13 33 2 -2
BITMAP
F958
0158
F958
0158
0158
F958
0158
0158
0158
0158
0158
0158
0158
0158
0158
0158
0158
0158
0158
0158
0158
0158
0158
0158
0158
0158
0158
F958
0158
0158
F958
0158
F958
ENDCHAR
STARTCHAR brokenbar.case
ENCODING -1
SWIDTH 262 0
DWIDTH 9 0
BBX 6 34 2 0
BITMAP
A4
A4
A4
A4
A4
A4
A4
A4
A4
A4
A4
A4
A4
A4
A4
A4
00
00
00
A4
A4
A4
A4
A4
A4
A4
A4
A4
A4
A4
A4
A4
A4
A4
ENDCHAR
STARTCHAR bullet.case
ENCODING -1
SWIDTH 503 0
DWIDTH 18 0
BBX 14 15 2 7
BITMAP
07C0
1860
2010
4788
C86C
9024
B014
A014
A014
A014
D024
5868
67D8
3830
0FC0
ENDCHAR
STARTCHAR uni0327.case
ENCODING -1
SWIDTH 0 0
DWIDTH 0 0
BBX 8 8 2 -8
BITMAP
18
20
7C
62
01
01
82
7C
ENDCHAR
STARTCHAR cent.case
ENCODING -1
SWIDTH 577 0
DWIDTH 21 0
BBX 17 34 2 -2
BITMAP
00B000
00B000
00B000
00B000
00B000
000000
000000
01FC00
060700
19F980
370E00
6CF300
5B0C00
D60400
940000
A40000
AC0000
AC0000
A40000
940000
D60000
5B0C00
6DFA00
360700
19FC80
0E0300
03FC00
000000
000000
00B000
00B000
00B000
00B000
00B000
ENDCHAR
STARTCHAR uni0302.case
ENCODING -1
SWIDTH 0 0
DWIDTH 0 0
BBX 15 8 2 32
BITMAP
06C0
0D80
0920
1230
3690
2448
4824
D836
ENDCHAR
STARTCHAR colon.case
ENCODING -1
SWIDTH 262 0
DWIDTH 9 0
BBX 6 20 2 0
BITMAP
A4
A4
A4
A4
A4
A4
00
00
00
00
00
00
00
00
A4
A4
A4
A4
A4
A4
ENDCHAR
STARTCHAR comma.case
ENCODING -1
SWIDTH 338 0
DWIDTH 12 0
BBX 8 10 2 -4
BITMAP
25
2D
29
6B
4A
5A
52
D4
94
B4
ENDCHAR
STARTCHAR copyright.case
ENCODING -1
SWIDTH 895 0
DWIDTH 32 0
BBX 30 31 1 -1
BITMAP
00010000
003FF800
01C00E00
030FE300
04703880
09800640
13000320
36000190
2407C0D0
48183048
5827CC68
504C702C
90D02024
90A00034
B0A00014
B0A00014
B0A00014
90900034
90983024
5047CC2C
58200828
48183048
2C0FC0D0
36000090
13000320
09800640
046018C0
031FE300
01C00E00
007FF800
00030000
ENDCHAR
STARTCHAR currency.case
ENCODING -1
SWIDTH 676 0
DWIDTH 24 0
BBX 22 23 1 1
BITMAP
080040
0C0060
260090
130330
C8016C
647CC8
318610
1B0120
0678A0
04C480
058280
0502C0
050280
058280
068480
127920
318210
6CFCC8
DA0164
3301B0
2400D8
180060
080020
ENDCHAR
STARTCHAR degree.case
ENCODING -1
SWIDTH 413 0
DWIDTH 15 0
BBX 13 13 1 17
BITMAP
0200
1FC0
2060
4710
D8D0
9048
B048
B048
9058
58D0
6FB0
3060
0F80
ENDCHAR
STARTCHAR uni0308.case
ENCODING -1
SWIDTH 0 0
DWIDTH 0 0
BBX 17 7 2 32
BITMAP
381E00
C43300
822100
822180
822100
C42100
781E00
ENDCHAR
STARTCHAR divide.case
ENCODING -1
SWIDTH 618 0
DWIDTH 22 0
BBX 18 18 2 6
BITMAP
00E000
019000
019000
00E000
000000
000000
FFFFC0
000000
FFFFC0
000000
000000
FFFFC0
000000
00E000
019000
011000
019000
00E000
ENDCHAR
STARTCHAR uni2215.case
ENCODING -1
SWIDTH 483 0
DWIDTH 17 0
BBX 16 29 0 0
BITMAP
002D
0029
004A
005A
0052
0094
00B4
00A4
0128
0168
0148
0250
02D0
0290
04A0
05A0
0520
0940
0B40
0A40
1280
1680
1480
2500
2D00
2900
4A00
5A00
D600
ENDCHAR
STARTCHAR dollar.case
ENCODING -1
SWIDTH 660 0
DWIDTH 24 0
BBX 22 34 1 -2
BITMAP
005800
005800
005800
005800
075B80
1858C0
335A20
665990
495CD8
D35B68
945928
945880
965800
538000
4CF000
270E00
11E180
0C3C60
038730
0070D8
000E68
00412C
0058A4
0458A4
B659AC
D35B68
485CC8
665990
335A20
1C58C0
075B00
005800
005800
005800
ENDCHAR
STARTCHAR eight.case
ENCODING -1
SWIDTH 561 0
DWIDTH 20 0
BBX 18 31 1 -1
BITMAP
004000
07F800
1BF600
361B00
680580
51E280
5212C0
940A40
B40940
B40940
940B40
921A40
49C2C0
467080
238C80
307200
4C1900
438480
58E2C0
961240
940B40
B40940
B40B40
940A40
D212C0
49E480
6C0980
33F300
180600
07F800
00C000
ENDCHAR
STARTCHAR ellipsis.case
ENCODING -1
SWIDTH 766 0
DWIDTH 28 0
BBX 24 6 2 0
BITMAP
A45229
A45229
A45229
A45229
A45229
A45229
ENDCHAR
STARTCHAR emdash.case
ENCODING -1
SWIDTH 790 0
DWIDTH 28 0
BBX 25 6 2 12
BITMAP
FFFFFF80
00000000
00000000
FFFFFF80
00000000
FFFFFF80
ENDCHAR
STARTCHAR endash.case
ENCODING -1
SWIDTH 721 0
DWIDTH 26 0
BBX 22 6 2 12
BITMAP
FFFFFC
000000
000000
FFFFFC
000000
FFFFFC
ENDCHAR
STARTCHAR equal.case
ENCODING -1
SWIDTH 618 0
DWIDTH 22 0
BBX 18 16 2 7
BITMAP
FFFFC0
000000
000000
FFFFC0
000000
FFFFC0
000000
000000
000000
000000
FFFFC0
000000
000000
FFFFC0
000000
FFFFC0
ENDCHAR
STARTCHAR Euro.case
ENCODING -1
SWIDTH 767 0
DWIDTH 28 0
BBX 27 31 0 -1
BITMAP
00008000
000FFC00
00300300
00C3F080
019C0C60
0333F300
024C1D80
04900600
05200200
09600000
0A400000
00000000
FFFFC000
00000000
00000000
FFFFC000
00000000
FFFFC000
00000000
00000000
0B400000
09200000
05B00200
04980600
024C1C80
0133F300
019C0E60
00C7F880
00300300
000FFC00
00008000
ENDCHAR
STARTCHAR exclam.case
ENCODING -1
SWIDTH 262 0
DWIDTH 9 0
BBX 6 29 2 0
BITMAP
A4
A4
A4
A4
A4
A4
A4
A4
A4
A4
A4
A4
A4
A4
A4
A4
A4
A4
A4
A4
A4
00
00
A4
A4
A4
A4
A4
A4
ENDCHAR
STARTCHAR exclamdown.case
ENCODING -1
SWIDTH 262 0
DWIDTH 9 0
BBX 6 29 2 -7
BITMAP
A4
A4
A4
A4
A4
A4
00
00
A4
A4
A4
A4
A4
A4
A4
A4
A4
A4
A4
A4
A4
A4
A4
A4
A4
A4
A4
A4
A4
ENDCHAR
STARTCHAR five.case
ENCODING -1
SWIDTH 558 0
DWIDTH 20 0
BBX 18 30 1 -1
BITMAP
7FFF80
000000
7FFF80
000000
7FFF80
000000
000000
520000
520000
520000
520000
52F000
520C00
520200
52F100
521880
52E480
521240
000A40
000B40
000940
B40B40
940A40
D212C0
49E480
6C0D80
33F300
180600
07F800
00C000
ENDCHAR
STARTCHAR four.case
ENCODING -1
SWIDTH 585 0
DWIDTH 21 0
BBX 19 29 1 0
BITMAP
00DA00
009400
01A400
012800
034800
025000
069000
04A000
0D2000
094000
1A4000
128000
348000
250000
692900
4A2900
D22900
002900
FFA960
002900
002900
FFA960
002900
FFA960
002900
002900
002900
002900
002900
ENDCHAR
STARTCHAR uni2074.case
ENCODING -1
SWIDTH 312 0
DWIDTH 11 0
BBX 9 14 1 15
BITMAP
1B00
1200
3400
2400
2800
4800
D000
0280
F280
0280
0280
F280
0280
0280
ENDCHAR
STARTCHAR fraction.case
ENCODING -1
SWIDTH 655 0
DWIDTH 24 0
BBX 20 29 2 0
BITMAP
0000B0
000120
000340
000240
000680
000480
000900
000B00
001200
001600
002400
006800
004800
00D000
009000
01A000
016000
024000
02C000
048000
0D0000
090000
1A0000
120000
340000
2C0000
480000
580000
B00000
ENDCHAR
STARTCHAR gravecomb.case
ENCODING -1
SWIDTH 0 0
DWIDTH 0 0
BBX 8 8 2 32
BITMAP
90
D0
48
2C
24
16
1A
09
ENDCHAR
STARTCHAR greater.case
ENCODING -1
SWIDTH 677 0
DWIDTH 24 0
BBX 22 25 1 2
BITMAP
800000
600000
180000
CC0000
630000
18C000
C67000
339800
1CC600
063180
018CC0
006730
00398C
00CC70
018300
063080
18C600
331800
C66000
18C000
630000
CC0000
380000
600000
800000
ENDCHAR
STARTCHAR guillemotleft.case
ENCODING -1
SWIDTH 666 0
DWIDTH 24 0
BBX 20 19 2 5
BITMAP
008010
030030
060060
090190
330330
660460
991190
D30930
660660
B01300
CC0CC0
660660
991310
CC8CD0
660660
190110
0C80D0
020060
010010
ENDCHAR
STARTCHAR guillemotright.case
ENCODING -1
SWIDTH 666 0
DWIDTH 24 0
BBX 20 19 2 5
BITMAP
801000
C00C00
600600
981100
CC0CC0
620660
989190
C90CB0
660660
0C8090
330330
660660
888990
B31330
660660
980980
B01300
600C00
800800
ENDCHAR
STARTCHAR guilsinglleft.case
ENCODING -1
SWIDTH 338 0
DWIDTH 12 0
BBX 8 19 2 5
BITMAP
01
03
06
09
33
66
99
D3
66
B0
CC
66
99
CD
66
19
0D
02
01
ENDCHAR
STARTCHAR guilsinglright.case
ENCODING -1
SWIDTH 338 0
DWIDTH 12 0
BBX 8 19 2 5
BITMAP
80
C0
60
98
CC
62
99
C9
66
0D
33
66
89
B3
66
98
B0
60
80
ENDCHAR
STARTCHAR hyphen.case
ENCODING -1
SWIDTH 445 0
DWIDTH 16 0
BBX 12 6 2 12
BITMAP
FFF0
0000
0000
FFF0
0000
FFF0
ENDCHAR
STARTCHAR less.case
ENCODING -1
SWIDTH 677 0
DWIDTH 24 0
BBX 22 25 1 2
BITMAP
000004
00000C
000030
0000C4
000398
000670
0018CC
006318
00CC60
063980
038700
1CCC00
E63000
318C00
0C6700
033180
01CC60
006338
0019CC
000660
000318
0000C4
000030
00001C
000004
ENDCHAR
STARTCHAR logicalnot.case
ENCODING -1
SWIDTH 618 0
DWIDTH 22 0
BBX 18 13 2 5
BITMAP
FFFFC0
000000
FFFFC0
000000
000000
FFFFC0
000000
000540
000540
000540
000540
000540
000540
ENDCHAR
STARTCHAR uni00B5.case
ENCODING -1
SWIDTH 792 0
DWIDTH 29 0
BBX 26 37 2 -8
BITMAP
A400A800
A400A800
A400A800
A400A800
A400A800
A400A800
A400A800
A400A800
A400A800
A400A800
A400A800
A400A800
A400A800
A400A800
A400A800
A400A800
A400A800
A400A800
A400A800
A400A800
A401A800
A4012800
A4034A00
A506D300
A4FD91C0
A5032600
A5FC4BC0
A4019C00
A5FF07C0
A4200040
A4000000
A4000000
A4000000
A4000000
A4000000
A4000000
A4000000
ENDCHAR
STARTCHAR minus.case
ENCODING -1
SWIDTH 618 0
DWIDTH 22 0
BBX 18 6 2 12
BITMAP
FFFFC0
000000
000000
FFFFC0
000000
FFFFC0
ENDCHAR
STARTCHAR multiply.case
ENCODING -1
SWIDTH 580 0
DWIDTH 21 0
BBX 18 17 2 6
BITMAP
080C00
041900
623200
B164C0
58C980
2D9300
132600
064C00
0C9800
193400
326200
64D100
C99880
932C00
261600
0C0A00
180400
ENDCHAR
STARTCHAR nine.case
ENCODING -1
SWIDTH 558 0
DWIDTH 20 0
BBX 18 31 1 -1
BITMAP
004000
07F800
180600
33F300
6C0D80
49E480
5212C0
940A40
940B40
B40940
940940
940940
D22940
49E940
460940
23E940
100940
0C0940
03E940
000940
000940
000940
B40940
940B40
D212C0
59E280
680580
361B00
1BF600
07F800
00C000
ENDCHAR
STARTCHAR numbersign.case
ENCODING -1
SWIDTH 776 0
DWIDTH 28 0
BBX 24 29 2 0
BITMAP
029094
02A094
06A0B4
04A0A4
04A0AC
052000
752FFF
056000
654FFF
0D4000
094000
695FFF
0A4000
0A4350
0AC250
0002D0
FFFA96
000290
FFF2B6
0006A0
0004A0
FFF4AE
0005A0
350520
250560
2D0540
290D40
2B0940
2A0B40
ENDCHAR
STARTCHAR one.case
ENCODING -1
SWIDTH 378 0
DWIDTH 14 0
BBX 11 29 1 0
BITMAP
F520
0520
F520
0520
F520
0520
0520
0520
0520
0520
0520
0520
0520
0520
0520
0520
0520
0520
0520
0520
0520
0520
0520
0520
0520
0520
0520
0520
0520
ENDCHAR
STARTCHAR onehalf.case
ENCODING -1
SWIDTH 735 0
DWIDTH 26 0
BBX 23 29 2 0
BITMAP
CA0068
0A00D0
CA0090
0A01A0
0A0160
0A0240
0A02C0
0A0480
0A0580
0A0900
0A1A00
0A1200
0A3400
002400
006800
005800
0090F8
00B18C
012374
034252
024012
068034
048064
0D00C8
0B01B0
120000
1603FC
240000
6803FC
ENDCHAR
STARTCHAR onequarter.case
ENCODING -1
SWIDTH 722 0
DWIDTH 26 0
BBX 22 30 2 -1
BITMAP
CA0068
0A00D0
CA0090
0A01A0
0A0160
0A0240
0A02C0
0A0480
0A0580
0A0900
0A1A00
0A1200
0A3400
002400
006800
005800
0090D8
00B090
0120A0
034120
024140
068240
0486C0
0D0014
0B0794
120014
160014
240794
680014
000014
ENDCHAR
STARTCHAR uni00B9.case
ENCODING -1
SWIDTH 306 0
DWIDTH 11 0
BBX 7 13 2 16
BITMAP
CA
0A
CA
0A
0A
0A
0A
0A
0A
0A
0A
0A
0A
ENDCHAR
STARTCHAR ordfeminine.case
ENCODING -1
SWIDTH 456 0
DWIDTH 16 0
BBX 13 13 2 16
BITMAP
0D00
0B00
0A80
1280
1640
3740
2540
2920
6FA0
48A0
5F90
D050
A058
ENDCHAR
STARTCHAR ordmasculine.case
ENCODING -1
SWIDTH 489 0
DWIDTH 18 0
BBX 14 14 2 16
BITMAP
0200
1FE0
3030
4798
D8C8
902C
A024
A024
A024
9028
5848
6F90
3060
0FC0
ENDCHAR
STARTCHAR paragraph.case
ENCODING -1
SWIDTH 893 0
DWIDTH 32 0
BBX 29 29 1 0
BITMAP
07FFFFF8
1C000000
33FFFFF8
6C000000
59FFFFF8
D6000000
B4000000
A4009428
A4009428
B4009428
96009428
9BFE9428
4C009428
67FE9428
30009428
18009428
07FE9428
00009428
00009428
00009428
00009428
00009428
00009428
00009428
00009428
00009428
00009428
00009428
00009428
ENDCHAR
STARTCHAR parenleft.case
ENCODING -1
SWIDTH 290 0
DWIDTH 10 0
BBX 10 34 1 -2
BITMAP
0D40
0A40
1A80
1680
1500
2500
2900
2A00
4A00
5A00
5200
5400
D400
9400
9400
B400
B400
B400
B400
9400
9400
9400
D400
5600
5200
4A00
6A00
2B00
2D00
3500
1580
1280
0AC0
0F40
ENDCHAR
STARTCHAR parenright.case
ENCODING -1
SWIDTH 290 0
DWIDTH 10 0
BBX 10 34 -1 -3
BITMAP
F400
5200
6A00
2B00
2500
3500
1480
1680
1A80
0AC0
0A40
0B40
0940
0940
0940
0D40
0540
0D40
0D40
0940
0940
0B40
0A40
0AC0
0A80
1280
1480
1580
2500
2900
2A00
5A00
5600
B400
ENDCHAR
STARTCHAR percent.case
ENCODING -1
SWIDTH 827 0
DWIDTH 30 0
BBX 28 31 1 -1
BITMAP
02000000
1FC005B0
20600920
4F101B40
D8D012C0
90482480
B0486D00
90484B00
98D8D200
4F90B400
60312C00
30634800
0F825000
0004B000
000DA000
00494000
00920000
00960000
01241F00
036861C0
0258DE40
0490B120
0DB120A0
09216090
1A414090
12C120B0
2481B1A0
6D009F60
4B0040C0
D2003F80
00000400
ENDCHAR
STARTCHAR period.case
ENCODING -1
SWIDTH 262 0
DWIDTH 9 0
BBX 6 6 2 0
BITMAP
A4
A4
A4
A4
A4
A4
ENDCHAR
STARTCHAR periodcentered.case
ENCODING -1
SWIDTH 262 0
DWIDTH 9 0
BBX 6 6 2 12
BITMAP
A4
A4
A4
A4
A4
A4
ENDCHAR
STARTCHAR plus.case
ENCODING -1
SWIDTH 616 0
DWIDTH 22 0
BBX 18 19 2 5
BITMAP
025000
025000
025000
025000
025000
025000
FA57C0
025000
025000
FA57C0
025000
FA57C0
025000
025000
025000
025000
025000
025000
025000
ENDCHAR
STARTCHAR plusminus.case
ENCODING -1
SWIDTH 618 0
DWIDTH 22 0
BBX 18 26 2 0
BITMAP
025000
025000
025000
025000
025000
025000
FA57C0
025000
025000
FA57C0
025000
FA57C0
025000
025000
025000
025000
025000
025000
025000
000000
FFFFC0
000000
000000
FFFFC0
000000
FFFFC0
ENDCHAR
STARTCHAR question.case
ENCODING -1
SWIDTH 598 0
DWIDTH 22 0
BBX 18 30 2 0
BITMAP
008000
0FF800
180600
23E300
4E1900
59E480
963680
B41AC0
A40A40
000A40
000A40
001280
006680
00CD80
019900
012600
024C00
02D800
029000
029000
029000
029000
000000
000000
029000
029000
029000
029000
029000
029000
ENDCHAR
STARTCHAR questiondown.case
ENCODING -1
SWIDTH 598 0
DWIDTH 22 0
BBX 18 30 2 -8
BITMAP
029000
029000
029000
029000
029000
029000
000000
000000
029000
029000
029000
029000
04B000
09A000
332000
664000
488000
D30000
B60000
A40000
A40000
A40A40
B41AC0
963680
59E480
4E1900
23E300
180600
0FF800
008000
ENDCHAR
STARTCHAR quotedbl.case
ENCODING -1
SWIDTH 464 0
DWIDTH 17 0
BBX 15 10 1 19
BITMAP
A452
A452
A452
A452
A452
A452
A452
A452
A452
A452
ENDCHAR
STARTCHAR quotedblbase.case
ENCODING -1
SWIDTH 464 0
DWIDTH 17 0
BBX 15 10 1 -4
BITMAP
A452
A452
A452
A452
A452
A452
2412
2412
2412
2412
ENDCHAR
STARTCHAR quotedblleft.case
ENCODING -1
SWIDTH 464 0
DWIDTH 17 0
BBX 15 10 1 19
BITMAP
A050
A050
A050
A050
A452
A452
A452
A452
A452
A452
ENDCHAR
STARTCHAR quotedblright.case
ENCODING -1
SWIDTH 464 0
DWIDTH 17 0
BBX 15 10 1 19
BITMAP
A452
A452
A452
A452
A452
A452
2412
2412
2412
2412
ENDCHAR
STARTCHAR quoteleft.case
ENCODING -1
SWIDTH 212 0
DWIDTH 8 0
BBX 6 10 1 19
BITMAP
A0
A0
A0
A0
A4
A4
A4
A4
A4
A4
ENDCHAR
STARTCHAR quoteright.case
ENCODING -1
SWIDTH 212 0
DWIDTH 8 0
BBX 6 10 1 19
BITMAP
A4
A4
A4
A4
A4
A4
24
24
24
24
ENDCHAR
STARTCHAR quotesinglbase.case
ENCODING -1
SWIDTH 212 0
DWIDTH 8 0
BBX 6 10 1 -4
BITMAP
A4
A4
A4
A4
A4
A4
24
24
24
24
ENDCHAR
STARTCHAR quotesingle.case
ENCODING -1
SWIDTH 212 0
DWIDTH 8 0
BBX 6 10 1 19
BITMAP
A4
A4
A4
A4
A4
A4
A4
A4
A4
A4
ENDCHAR
STARTCHAR registered.case
ENCODING -1
SWIDTH 895 0
DWIDTH 32 0
BBX 30 31 1 -1
BITMAP
00010000
003FF800
01C00E00
030FE300
04703880
09800640
13000320
36000190
246FE0D0
48681848
586FE868
5068242C
90682424
906FE434
B0680814
B0681814
B06FF014
9068A034
90689024
5068D02C
58685828
48684848
2C682CD0
36000090
13000320
09800640
046018C0
031FE300
01C00E00
007FF800
00030000
ENDCHAR
STARTCHAR uni030A.case
ENCODING -1
SWIDTH 0 0
DWIDTH 0 0
BBX 7 8 2 32
BITMAP
38
46
82
82
82
82
C6
7C
ENDCHAR
STARTCHAR section.case
ENCODING -1
SWIDTH 645 0
DWIDTH 23 0
BBX 21 37 1 -5
BITMAP
00FE00
070380
0C1060
11FF30
360190
24FC48
298328
290180
2D8000
24F000
131E00
19C180
0C3C40
038320
08F9B0
320C90
24E250
690250
4A0250
5A0690
4A19B0
698320
24F840
330F00
18F180
0E0E40
03C120
0078B0
0006D0
000250
3606D0
99FC90
4E0330
63FE20
300040
0E0380
03FE00
ENDCHAR
STARTCHAR semicolon.case
ENCODING -1
SWIDTH 338 0
DWIDTH 12 0
BBX 8 23 2 -4
BITMAP
35
35
35
35
35
35
00
00
00
00
00
00
00
25
2D
29
6B
4A
5A
52
D4
94
B4
ENDCHAR
STARTCHAR seven.case
ENCODING -1
SWIDTH 505 0
DWIDTH 18 0
BBX 16 29 1 0
BITMAP
FFFF
0000
FFFF
0000
FFFF
0000
004A
004A
0052
0056
0094
00B4
00A4
01A8
0128
0148
0148
0250
0250
0290
02B0
04A0
05A0
0520
0D40
0940
0A40
0A40
1280
ENDCHAR
STARTCHAR six.case
ENCODING -1
SWIDTH 558 0
DWIDTH 20 0
BBX 18 31 1 -1
BITMAP
004000
07FC00
19F600
361B00
680580
51E280
5212C0
940A40
B40940
B40000
B40000
B40000
B5F000
B40C00
B40200
B5F100
B41880
B5E480
B51240
B40A40
B40B40
B40940
940B40
940A40
D212C0
49E480
640D80
33F300
180600
07F800
00C000
ENDCHAR
STARTCHAR slash.case
ENCODING -1
SWIDTH 504 0
DWIDTH 18 0
BBX 18 34 0 -2
BITMAP
000A40
001280
001680
001480
002500
002D00
002900
004A00
005A00
005200
009400
00B400
00A400
012800
016800
014800
025000
02D000
029000
04A000
05A000
052000
094000
0B4000
0A4000
128000
168000
148000
250000
2D0000
290000
4A0000
5A0000
D60000
ENDCHAR
STARTCHAR uni00AD.case
ENCODING -1
SWIDTH 445 0
DWIDTH 16 0
BBX 12 6 2 12
BITMAP
FFF0
0000
0000
FFF0
0000
FFF0
ENDCHAR
STARTCHAR sterling.case
ENCODING -1
SWIDTH 618 0
DWIDTH 22 0
BBX 21 30 0 0
BITMAP
001000
03FF00
0600C0
18FC60
130310
24FCD8
2D8348
2B0128
2B0180
290000
358000
000000
7FFF00
000000
000000
7FFF00
000000
7FFF00
000000
000000
1B4000
368000
6D8000
000000
FFFFF8
000000
FFFFF8
000000
000000
FFFFF8
ENDCHAR
STARTCHAR three.case
ENCODING -1
SWIDTH 558 0
DWIDTH 20 0
BBX 18 31 1 -1
BITMAP
004000
07F800
19F600
361B00
680580
59E280
D212C0
940B40
B40940
000940
000A40
000240
007080
000C80
000200
007100
001880
006480
001240
000A40
000B40
000940
B40B40
940A40
D212C0
49E480
6C0D80
33F300
180600
07F800
00C000
ENDCHAR
STARTCHAR threequarters.case
ENCODING -1
SWIDTH 722 0
DWIDTH 26 0
BBX 22 30 2 -1
BITMAP
3C0068
4200D0
990090
A501A0
010160
0C0240
0202C0
010480
090580
250900
991A00
C21200
7C3400
002400
006800
005800
0090D8
00B090
0120A0
034120
024140
068240
0486C0
0D0014
0B0794
120014
160014
240794
680014
000014
ENDCHAR
STARTCHAR uni00B3.case
ENCODING -1
SWIDTH 332 0
DWIDTH 12 0
BBX 8 13 2 16
BITMAP
3C
42
99
A5
01
0C
02
01
09
25
99
C2
7C
ENDCHAR
STARTCHAR tildecomb.case
ENCODING -1
SWIDTH 0 0
DWIDTH 0 0
BBX 13 4 2 32
BITMAP
3808
C608
8318
81F0
ENDCHAR
STARTCHAR trademark.case
ENCODING -1
SWIDTH 850 0
DWIDTH 31 0
BBX 29 15 0 14
BITMAP
FFF2C068
0002E068
0002A0A8
FFF29128
0502DB68
0502EE68
0502A4A8
05029328
05028928
05028C28
05028428
05028028
05028028
05028028
05028028
ENDCHAR
STARTCHAR two.case
ENCODING -1
SWIDTH 558 0
DWIDTH 20 0
BBX 18 30 1 0
BITMAP
004000
07F800
180600
33F300
661980
49E480
D212C0
940A40
B40B40
000940
000B40
001A40
0012C0
002480
004D80
009B00
013600
036400
06C800
0C9000
192000
324000
648000
000000
7FFF80
000000
7FFF80
000000
000000
7FFF80
ENDCHAR
STARTCHAR uni00B2.case
ENCODING -1
SWIDTH 339 0
DWIDTH 12 0
BBX 8 13 2 16
BITMAP
3C
43
99
B5
05
09
13
26
EC
00
FF
00
FF
ENDCHAR
STARTCHAR underscore.case
ENCODING -1
SWIDTH 667 0
DWIDTH 24 0
BBX 20 6 2 0
BITMAP
FFFFF0
000000
FFFFF0
000000
000000
FFFFF0
ENDCHAR
STARTCHAR yen.case
ENCODING -1
SWIDTH 769 0
DWIDTH 28 0
BBX 27 29 0 0
BITMAP
DB000D20
6D001B40
248012C0
12C02480
1A406D00
09204B00
05B09200
0691B400
02492C00
016D4800
01A4D800
00929000
00DB2000
00496000
00258000
00120000
00000000
00148000
07D4BC00
00148000
07D4BC00
00148000
00148000
07D4BC00
00148000
00148000
00148000
00148000
00148000
ENDCHAR
STARTCHAR zero.case
ENCODING -1
SWIDTH 558 0
DWIDTH 20 0
BBX 18 31 1 -1
BITMAP
004000
07F800
19F600
361B00
680580
51E280
5212C0
940B40
B40940
B40940
B40940
B40940
B40940
B40940
B40940
B40940
B40940
B40940
B40940
B40940
B40940
B40940
940B40
940A40
D212C0
49E480
640980
33F300
180600
07F800
00C000
ENDCHAR
ENDFONT
